SplineFontDB: 3.2
FontName: db-pixel
FullName: db-pixel
FamilyName: db-pixel
Weight: Regular
Copyright: 2025, Daan Blom
UComments: "2025-2-25: Created with FontForge (http://fontforge.org)"
Version: 001.000
ItalicAngle: 0
UnderlinePosition: -100
UnderlineWidth: 50
Ascent: 800
Descent: 200
InvalidEm: 0
LayerCount: 4
Layer: 0 0 "Back" 1
Layer: 1 0 "Fore" 0
Layer: 2 0 "Back 2" 1
Layer: 3 0 "Back 3" 1
XUID: [1021 431 -2077390932 1742003]
StyleMap: 0x0000
FSType: 0
OS2Version: 0
OS2_WeightWidthSlopeOnly: 0
OS2_UseTypoMetrics: 1
CreationTime: 1740490270
ModificationTime: 1742896811
OS2TypoAscent: 0
OS2TypoAOffset: 1
OS2TypoDescent: 0
OS2TypoDOffset: 1
OS2TypoLinegap: 90
OS2WinAscent: 0
OS2WinAOffset: 1
OS2WinDescent: 0
OS2WinDOffset: 1
HheadAscent: 0
HheadAOffset: 1
HheadDescent: 0
HheadDOffset: 1
MarkAttachClasses: 1
DEI: 91125
Encoding: win
UnicodeInterp: none
NameList: AGL For New Fonts
DisplaySize: -48
AntiAlias: 1
FitToEm: 0
WinInfo: 0 33 23
BeginPrivate: 0
EndPrivate
BeginChars: 257 97

StartChar: a
Encoding: 97 97 0
Width: 607
Flags: W
HStem: 1.84277 118.38<114.612 385.815> 120.223 198.579<0 114.611> 200.422 118.38<114.611 385.816> 484.789 118.381<0 385.816>
VStem: 0 114.611<120.223 200.422> 385.816 114.609<120.286 200.422 318.802 484.789 603.17 603.231>
LayerCount: 4
Fore
SplineSet
385.81640625 603.231445312 m 1x3c
 500.42578125 603.231445312 l 1
 500.42578125 120.286132812 l 1
 385.81640625 120.286132812 l 1
 385.81640625 200.421875 l 1
 114.611328125 200.421875 l 1x3c
 114.611328125 120.22265625 l 1
 0 120.22265625 l 1
 0 318.801757812 l 1
 114.611328125 318.801757812 l 1x5c
 385.81640625 318.801757812 l 1
 385.81640625 484.7890625 l 1
 0 484.7890625 l 1
 0 603.169921875 l 1
 385.81640625 603.169921875 l 1
 385.81640625 603.231445312 l 1x3c
114.612304688 120.22265625 m 1x9c
 385.815429688 120.22265625 l 1
 385.815429688 1.8427734375 l 1
 114.612304688 1.8427734375 l 1
 114.612304688 120.22265625 l 1x9c
EndSplineSet
Validated: 1
EndChar

StartChar: b
Encoding: 98 98 1
Width: 665
Flags: W
HStem: 2.02734 118.133<114.557 447.765> 483.961 118.133<114.491 447.765> 780.768 20G<0.120117 114.491>
VStem: 0.120117 114.371<120.223 483.961 602.094 800.768> 447.765 114.369<120.223 483.898>
LayerCount: 4
Fore
SplineSet
0.1201171875 800.767578125 m 1
 114.491210938 800.767578125 l 1
 114.491210938 602.09375 l 1
 447.764648438 602.09375 l 1
 447.764648438 483.9609375 l 1
 114.491210938 483.9609375 l 1
 114.491210938 120.22265625 l 1
 0.1201171875 120.22265625 l 1
 0.1201171875 800.767578125 l 1
447.764648438 483.8984375 m 1
 562.133789062 483.8984375 l 1
 562.133789062 120.22265625 l 1
 447.764648438 120.22265625 l 1
 447.764648438 483.8984375 l 1
114.556640625 120.16015625 m 1
 447.764648438 120.16015625 l 1
 447.764648438 2.02734375 l 1
 114.556640625 2.02734375 l 1
 114.556640625 120.16015625 l 1
EndSplineSet
Validated: 1
EndChar

StartChar: c
Encoding: 99 99 2
Width: 658
Flags: W
HStem: 0 118.294<118 430.358> 118.355 80.998<430.358 544.884> 402.328 80.2012<430.358 544.884> 482.592 118.169<118 430.358>
VStem: -0.166992 118.168<118.356 482.529> 118 312.358<0 118.294 482.592 600.761> 430.358 114.525<118.355 199.354 402.328 482.529>
LayerCount: 4
Fore
SplineSet
430.358398438 482.529296875 m 5xf2
 544.883789062 482.529296875 l 5
 544.883789062 402.328125 l 5
 430.358398438 402.328125 l 5
 430.358398438 482.529296875 l 5xf2
430.358398438 199.353515625 m 5
 544.883789062 199.353515625 l 5
 544.883789062 118.35546875 l 5
 430.358398438 118.35546875 l 5
 430.358398438 199.353515625 l 5
-0.1669921875 118.356445312 m 5xf8
 -0.1669921875 482.529296875 l 5
 118.000976562 482.529296875 l 5
 118.000976562 118.356445312 l 5
 -0.1669921875 118.356445312 l 5xf8
118 0 m 5xf4
 118 118.293945312 l 5
 430.358398438 118.293945312 l 5
 430.358398438 0 l 5
 118 0 l 5xf4
118 482.591796875 m 5
 118 600.760742188 l 5
 430.358398438 600.760742188 l 5
 430.358398438 482.591796875 l 5
 118 482.591796875 l 5
EndSplineSet
Validated: 1
EndChar

StartChar: d
Encoding: 100 100 3
Width: 669
Flags: W
LayerCount: 4
Fore
SplineSet
448.532226562 800 m 1
 563.055664062 800 l 1
 563.055664062 118.530273438 l 1
 448.532226562 118.530273438 l 1
 448.532226562 482.763671875 l 1
 114.522460938 482.763671875 l 1
 114.522460938 601.064453125 l 1
 448.532226562 601.064453125 l 1
 448.532226562 800 l 1
114.522460938 482.763671875 m 1
 114.522460938 118.530273438 l 1
 0 118.530273438 l 1
 0 482.763671875 l 1
 114.522460938 482.763671875 l 1
114.522460938 118.461914062 m 1
 448.532226562 118.461914062 l 1
 448.532226562 0.1611328125 l 1
 114.522460938 0.1611328125 l 1
 114.522460938 118.461914062 l 1
EndSplineSet
Validated: 5
EndChar

StartChar: e
Encoding: 101 101 4
Width: 651
Flags: W
HStem: 0.000976562 118.398<118.262 488.194> 198.531 118.535<118.262 430.886> 317.066 165.867<430.886 545.503> 483.002 118.262<118.262 430.886>
VStem: 0 118.262<118.468 198.531 317.066 483.002> 430.886 114.617<317.066 482.934>
LayerCount: 4
Fore
SplineSet
118.26171875 601.263671875 m 1x9c
 430.885742188 601.263671875 l 1
 430.885742188 483.001953125 l 1
 118.26171875 483.001953125 l 1
 118.26171875 601.263671875 l 1x9c
118.26171875 483.001953125 m 1
 118.26171875 317.06640625 l 1
 430.885742188 317.06640625 l 1
 430.885742188 198.53125 l 1
 118.26171875 198.53125 l 1xdc
 118.26171875 118.467773438 l 1
 0 118.467773438 l 1
 0 483.001953125 l 1
 118.26171875 483.001953125 l 1
430.885742188 317.06640625 m 1
 430.885742188 482.93359375 l 1
 545.502929688 482.93359375 l 1
 545.502929688 317.06640625 l 1xbc
 430.885742188 317.06640625 l 1
118.26171875 118.399414062 m 1
 488.194335938 118.399414062 l 1
 488.194335938 0.0009765625 l 1
 118.26171875 0.0009765625 l 1
 118.26171875 118.399414062 l 1
EndSplineSet
Validated: 5
EndChar

StartChar: f
Encoding: 102 102 5
Width: 475
Flags: W
HStem: 0.000976562 21G<96.5908 211.114> 0.000976562 21G<96.5908 211.114> 482.555 118.292<0 367.062> 681.434 118.566<211.114 367.062>
VStem: 96.5908 114.523<0.000976562 681.434> 211.114 155.948<681.434 800>
LayerCount: 4
Fore
SplineSet
96.5908203125 0.0009765625 m 1xb8
 96.5908203125 681.43359375 l 1
 211.114257812 681.43359375 l 1
 211.114257812 0.0009765625 l 1
 96.5908203125 0.0009765625 l 1xb8
-0 600.846679688 m 1
 367.0625 600.846679688 l 1
 367.0625 482.5546875 l 1x34
 -0 482.5546875 l 1
 -0 600.846679688 l 1
211.114257812 800 m 1
 367.0625 800 l 1
 367.0625 681.43359375 l 1x34
 211.114257812 681.43359375 l 1x38
 211.114257812 800 l 1
EndSplineSet
Validated: 5
EndChar

StartChar: g
Encoding: 103 103 6
Width: 679
Flags: W
HStem: -115.64 117.898<65.374 433.762> 120.562 118.374<116.32 436.528> 483.24 117.899<114.144 433.761>
VStem: 0 114.144<238.936 483.24> 433.762 114.144<2.25879 120.562 238.936 601.264> 433.762 2.7666<120.562 238.936>
LayerCount: 4
Fore
SplineSet
433.76171875 2.2587890625 m 1xf8
 433.76171875 601.263671875 l 1
 547.905273438 601.263671875 l 1
 547.905273438 2.2587890625 l 1
 433.76171875 2.2587890625 l 1xf8
65.3740234375 -115.639648438 m 1
 65.3740234375 2.2587890625 l 1
 433.76171875 2.2587890625 l 1xf8
 433.76171875 -115.639648438 l 1xf4
 65.3740234375 -115.639648438 l 1
0 483.240234375 m 1
 114.143554688 483.240234375 l 1
 114.143554688 238.935546875 l 1
 0 238.935546875 l 1
 0 483.240234375 l 1
114.143554688 483.240234375 m 1
 114.143554688 601.139648438 l 1
 433.760742188 601.139648438 l 1
 433.760742188 483.240234375 l 1
 114.143554688 483.240234375 l 1
116.3203125 120.561523438 m 1
 116.3203125 238.935546875 l 1
 436.528320312 238.935546875 l 1
 436.528320312 120.561523438 l 1xf4
 116.3203125 120.561523438 l 1
EndSplineSet
Validated: 5
EndChar

StartChar: h
Encoding: 104 104 7
Width: 635
Flags: W
HStem: 0.000976562 21G<0 114.559 418.812 533.348> 0.000976562 21G<0 114.559 418.812 533.348> 482.659 118.314<114.559 418.812> 780 20G<0 114.559>
VStem: 0 114.559<0.000976562 482.659 600.974 800> 418.812 114.536<0.000976562 482.659>
LayerCount: 4
Fore
SplineSet
0 800 m 1xbc
 114.55859375 800 l 1
 114.55859375 600.973632812 l 1
 418.811523438 600.973632812 l 1
 418.811523438 482.727539062 l 1
 533.34765625 482.727539062 l 1
 533.34765625 0.0009765625 l 1
 418.811523438 0.0009765625 l 1
 418.811523438 482.659179688 l 1
 114.55859375 482.659179688 l 1
 114.55859375 0.0009765625 l 1
 0 0.0009765625 l 1
 0 800 l 1xbc
EndSplineSet
Validated: 1
EndChar

StartChar: i
Encoding: 105 105 8
Width: 236
Flags: W
HStem: 0.000976562 21G<0 114.541> 0.000976562 21G<0 114.541> 581.092 20G<0 114.541> 681.565 117.645<0 114.541>
VStem: -0 114.541<0.000976562 601.092 681.565 799.21>
LayerCount: 4
Fore
SplineSet
-0 0.0009765625 m 1xb8
 -0 601.091796875 l 1
 114.541015625 601.091796875 l 1
 114.541015625 0.0009765625 l 1
 -0 0.0009765625 l 1xb8
-0 681.565429688 m 1
 -0 799.209960938 l 1
 114.541015625 799.209960938 l 1
 114.541015625 681.565429688 l 1
 -0 681.565429688 l 1
EndSplineSet
Validated: 1
EndChar

StartChar: j
Encoding: 106 106 9
Width: 360
Flags: W
HStem: -116.187 115.642<0.432617 127.997> -0.544922 21G<127.997 242.538> -0.544922 21G<127.997 242.538> 580.545 20G<127.997 242.538> 681.02 118.435<127.997 242.538>
VStem: 0.432617 127.564<-116.187 -0.544922> 127.997 114.541<-0.544922 600.545 681.02 799.454>
LayerCount: 4
Fore
SplineSet
127.997070312 -0.544921875 m 1x9c
 127.997070312 600.544921875 l 1
 242.538085938 600.544921875 l 1
 242.538085938 -0.544921875 l 1x5a
 127.997070312 -0.544921875 l 1x9c
127.997070312 681.01953125 m 1
 127.997070312 799.454101562 l 1
 242.538085938 799.454101562 l 1
 242.538085938 681.01953125 l 1
 127.997070312 681.01953125 l 1
0.4326171875 -116.186523438 m 1x9c
 0.4326171875 -0.544921875 l 1
 127.997070312 -0.544921875 l 1
 127.997070312 -116.186523438 l 1
 0.4326171875 -116.186523438 l 1x9c
EndSplineSet
Validated: 5
EndChar

StartChar: n
Encoding: 110 110 10
Width: 618
InSpiro: 1
Flags: W
HStem: 0.000976562 21G<0 101.268 369.44 470.708> 0.000976562 21G<0 101.268 369.44 470.708> 426.76 104.607<101.268 369.44> 582.566 20G<0 101.268>
VStem: -0 101.268<0.000976562 426.76 531.367 602.566> 369.44 101.268<0.000976562 425.634>
LayerCount: 4
Fore
SplineSet
-0 602.56640625 m 1xbc
 101.267578125 602.56640625 l 1
 101.267578125 531.3671875 l 1
 369.440429688 531.3671875 l 1
 369.440429688 426.759765625 l 1
 101.267578125 426.759765625 l 1
 101.267578125 0.0009765625 l 1
 -0 0.0009765625 l 1
 -0 602.56640625 l 1xbc
  Spiro
    -0 602.566 v
    101.268 602.566 v
    101.268 531.367 v
    369.44 531.367 v
    369.44 426.76 v
    101.268 426.76 v
    101.268 0.000976562 v
    -0 0.000976562 v
    0 0 z
  EndSpiro
369.440429688 425.633789062 m 1
 470.708007812 425.633789062 l 1
 470.708007812 0.0009765625 l 1
 369.440429688 0.0009765625 l 1
 369.440429688 425.633789062 l 1
  Spiro
    369.44 425.634 v
    470.708 425.634 v
    470.708 0.000976562 v
    369.44 0.000976562 v
    0 0 z
  EndSpiro
EndSplineSet
Validated: 1
EndChar

StartChar: k
Encoding: 107 107 11
Width: 610
Flags: W
HStem: -0 198.524<383.382 497.972> 198.524 118.411<114.583 268.792> 581.264 20G<268.792 383.382> 780.467 20G<0 114.583>
VStem: -0 114.583<0.0205078 198.524 316.936 800.467> 268.792 114.59<316.936 601.264> 383.382 114.59<0 198.524>
LayerCount: 4
Fore
SplineSet
-0 800.466796875 m 1x7a
 114.583007812 800.466796875 l 1
 114.583007812 316.935546875 l 1
 268.791992188 316.935546875 l 1
 268.791992188 601.263671875 l 1
 383.381835938 601.263671875 l 1
 383.381835938 316.935546875 l 1x7c
 383.381835938 198.524414062 l 1xba
 114.583007812 198.524414062 l 1
 114.583007812 0.0205078125 l 1
 -0 0.0205078125 l 1
 -0 800.466796875 l 1x7a
383.381835938 198.524414062 m 1xba
 497.971679688 198.524414062 l 1
 497.971679688 -0 l 1
 383.381835938 -0 l 1
 383.381835938 198.524414062 l 1xba
EndSplineSet
Validated: 5
EndChar

StartChar: l
Encoding: 108 108 12
Width: 246
Flags: W
HStem: 0.000976562 21G<0 114.541> 0.000976562 21G<0 114.541> 780 20G<0 114.541>
VStem: -0 114.541<0.000976562 800>
LayerCount: 4
Fore
SplineSet
-0 0.0009765625 m 1xb0
 -0 800 l 1
 114.541015625 800 l 1
 114.541015625 0.0009765625 l 1
 -0 0.0009765625 l 1xb0
EndSplineSet
Validated: 1
EndChar

StartChar: m
Encoding: 109 109 13
Width: 923
Flags: W
HStem: -0.849609 21G<0 101.188 360.385 461.574 719.724 820.913> -0.849609 21G<0 101.188 360.385 461.574 719.724 820.913> 425.595 104.525<101.188 360.385 461.574 719.724> 581.264 20G<0 101.188>
VStem: -0 101.188<-0.849609 425.595 530.12 601.264> 360.385 101.189<-0.849609 425.595> 719.724 101.189<-0.849609 425.595>
LayerCount: 4
Fore
SplineSet
-0 601.263671875 m 1xbe
 101.188476562 601.263671875 l 1
 101.188476562 530.120117188 l 1
 360.384765625 530.120117188 l 1
 360.384765625 425.594726562 l 1
 101.188476562 425.594726562 l 1
 101.188476562 -0.849609375 l 1
 -0 -0.849609375 l 1
 -0 601.263671875 l 1xbe
360.384765625 425.594726562 m 1
 461.57421875 425.594726562 l 1
 461.57421875 -0.849609375 l 1
 360.384765625 -0.849609375 l 1
 360.384765625 425.594726562 l 1
461.57421875 425.594726562 m 1
 461.57421875 530.120117188 l 1
 719.723632812 530.120117188 l 1
 719.723632812 425.594726562 l 1
 461.57421875 425.594726562 l 1
719.723632812 425.594726562 m 1
 820.913085938 425.594726562 l 1
 820.913085938 -0.849609375 l 1
 719.723632812 -0.849609375 l 1
 719.723632812 425.594726562 l 1
EndSplineSet
Validated: 5
EndChar

StartChar: o
Encoding: 111 111 14
Width: 653
Flags: W
HStem: 1.42188 118.102<114.341 449.676> 483.166 118.102<114.334 449.676>
VStem: 0.000976562 114.34<119.523 483.166> 114.334 335.342<1.42188 119.521 483.166 601.268> 449.681 114.34<119.521 483.166>
LayerCount: 4
Fore
SplineSet
0.0009765625 119.521484375 m 1xe8
 0.0009765625 483.166015625 l 1
 114.340820312 483.166015625 l 1
 114.340820312 119.521484375 l 1
 0.0009765625 119.521484375 l 1xe8
449.680664062 119.521484375 m 1
 449.680664062 483.166015625 l 1
 564.020507812 483.166015625 l 1
 564.020507812 119.521484375 l 1
 449.680664062 119.521484375 l 1
114.333984375 601.267578125 m 1xd8
 449.67578125 601.267578125 l 1
 449.67578125 483.166015625 l 1
 114.333984375 483.166015625 l 1
 114.333984375 601.267578125 l 1xd8
114.333984375 119.5234375 m 1
 449.67578125 119.5234375 l 1
 449.67578125 1.421875 l 1
 114.333984375 1.421875 l 1
 114.333984375 119.5234375 l 1
EndSplineSet
Validated: 5
EndChar

StartChar: p
Encoding: 112 112 15
Width: 554
Flags: W
HStem: 0.000976562 21G<0 95.7334> 0.000976562 21G<0 95.7334> 98.9951 98.8906<95.7334 376.815> 502.373 98.8906<96.0361 376.815>
VStem: -0 95.7334<0.000976562 98.9951 197.886 502.373> 376.815 95.7393<197.886 502.373>
LayerCount: 4
Fore
SplineSet
96.0361328125 601.263671875 m 1x3c
 376.815429688 601.263671875 l 1
 376.815429688 502.373046875 l 1
 96.0361328125 502.373046875 l 1
 96.0361328125 601.263671875 l 1x3c
376.815429688 502.373046875 m 1
 472.5546875 502.373046875 l 1
 472.5546875 197.885742188 l 1
 376.815429688 197.885742188 l 1
 376.815429688 502.373046875 l 1
376.815429688 197.885742188 m 1
 376.815429688 98.9951171875 l 1
 95.7333984375 98.9951171875 l 1
 95.7333984375 0.0009765625 l 1
 -0 0.0009765625 l 1xbc
 -0 502.373046875 l 1
 95.7333984375 502.373046875 l 1
 95.7333984375 197.885742188 l 1
 376.815429688 197.885742188 l 1
EndSplineSet
Validated: 5
EndChar

StartChar: q
Encoding: 113 113 16
Width: 582
Flags: W
HStem: 0.000976562 21G<376.526 472.264> 0.000976562 21G<376.526 472.264> 98.9941 98.8896<95.7314 376.526> 502.369 98.8945<95.7314 376.526>
VStem: -0 95.7314<197.884 502.369> 376.526 95.7373<0.000976562 98.9941 197.884 502.369>
LayerCount: 4
Fore
SplineSet
95.7314453125 601.263671875 m 1x3c
 376.526367188 601.263671875 l 1
 376.526367188 502.369140625 l 1
 95.7314453125 502.369140625 l 1
 95.7314453125 601.263671875 l 1x3c
376.526367188 502.369140625 m 1
 472.263671875 502.369140625 l 1
 472.263671875 0.0009765625 l 1
 376.526367188 0.0009765625 l 1xbc
 376.526367188 98.994140625 l 1
 95.7314453125 98.994140625 l 1
 95.7314453125 197.883789062 l 1
 376.526367188 197.883789062 l 1
 376.526367188 502.369140625 l 1
95.7314453125 197.883789062 m 1
 -0 197.883789062 l 1
 -0 502.369140625 l 1
 95.7314453125 502.369140625 l 1
 95.7314453125 197.883789062 l 1
EndSplineSet
Validated: 5
EndChar

StartChar: r
Encoding: 114 114 17
Width: 549
Flags: W
HStem: 0.000976562 21G<0 112.822> 0.000976562 21G<0 112.822> 321.304 163.416<323.615 436.438> 484.72 116.544<112.822 323.615>
VStem: -0 112.822<0.000976562 484.72> 323.615 112.822<321.304 484.72>
LayerCount: 4
Fore
SplineSet
112.822265625 601.263671875 m 1x1c
 323.615234375 601.263671875 l 1x1c
 323.615234375 484.719726562 l 1x2c
 112.822265625 484.719726562 l 1
 112.822265625 601.263671875 l 1x1c
323.615234375 484.719726562 m 1x2c
 436.4375 484.719726562 l 1
 436.4375 321.303710938 l 1
 323.615234375 321.303710938 l 1
 323.615234375 484.719726562 l 1x2c
112.822265625 484.719726562 m 1x9c
 112.822265625 0.0009765625 l 1
 -0 0.0009765625 l 1
 -0 484.719726562 l 1
 112.822265625 484.719726562 l 1x9c
EndSplineSet
Validated: 5
EndChar

StartChar: s
Encoding: 115 115 18
Width: 580
Flags: W
HStem: 1.6084 117.994<0 363.756> 119.603 79.876<363.756 478.075> 199.547 118.068<114.318 363.735> 317.615 165.565<0 114.318> 483.181 118.083<114.318 478.075>
VStem: -0 114.318<317.615 483.181> 363.756 114.319<119.603 199.479>
LayerCount: 4
Fore
SplineSet
114.318359375 601.263671875 m 1x0e
 478.075195312 601.263671875 l 1
 478.075195312 483.180664062 l 1x0e
 114.318359375 483.180664062 l 1x16
 114.318359375 601.263671875 l 1x0e
114.318359375 483.180664062 m 1x16
 114.318359375 317.615234375 l 1x26
 -0 317.615234375 l 1
 -0 483.180664062 l 1
 114.318359375 483.180664062 l 1x16
114.318359375 317.615234375 m 1
 363.735351562 317.615234375 l 1
 363.735351562 199.546875 l 1
 114.318359375 199.546875 l 1
 114.318359375 317.615234375 l 1
363.755859375 199.478515625 m 1x46
 478.075195312 199.478515625 l 1
 478.075195312 119.602539062 l 1x46
 363.755859375 119.602539062 l 1x86
 363.755859375 199.478515625 l 1x46
363.755859375 119.602539062 m 1x86
 363.755859375 1.6083984375 l 1
 -0 1.6083984375 l 1
 -0 119.602539062 l 1
 363.755859375 119.602539062 l 1x86
EndSplineSet
Validated: 5
EndChar

StartChar: t
Encoding: 116 116 19
Width: 506
Flags: W
HStem: 0.000976562 118.311<223.188 405.554> 482.865 118.398<0 107.563 222.182 405.554>
VStem: 107.563 114.618<118.312 482.865 601.264 681.854> 223.188 182.365<0.000976562 118.312>
LayerCount: 4
Fore
SplineSet
107.563476562 681.853515625 m 1
 222.181640625 681.853515625 l 1
 222.181640625 601.263671875 l 1
 405.553710938 601.263671875 l 1
 405.553710938 482.865234375 l 1
 222.181640625 482.865234375 l 1
 222.181640625 118.311523438 l 1
 107.563476562 118.311523438 l 1
 107.563476562 482.865234375 l 1
 -0 482.865234375 l 1
 -0 601.263671875 l 1
 107.563476562 601.263671875 l 1
 107.563476562 681.853515625 l 1
223.188476562 118.311523438 m 1
 405.553710938 118.311523438 l 1
 405.553710938 0.0009765625 l 1
 223.188476562 0.0009765625 l 1
 223.188476562 118.311523438 l 1
EndSplineSet
Validated: 1
EndChar

StartChar: u
Encoding: 117 117 20
Width: 679
Flags: W
HStem: 0.000976562 118.449<114.581 426.506> 581.264 20G<0 114.581 426.506 541.087>
VStem: -0 114.581<118.45 601.264> 426.506 114.581<118.45 601.264>
LayerCount: 4
Fore
SplineSet
-0 601.263671875 m 1
 114.581054688 601.263671875 l 1
 114.581054688 118.450195312 l 1
 426.505859375 118.450195312 l 1
 426.505859375 601.263671875 l 1
 541.086914062 601.263671875 l 1
 541.086914062 0.0009765625 l 1
 526.708007812 0.0009765625 l 1
 114.573242188 0.0009765625 l 1
 114.573242188 118.4296875 l 1
 -0 118.4296875 l 1
 -0 601.263671875 l 1
EndSplineSet
Validated: 1
EndChar

StartChar: v
Encoding: 118 118 21
Width: 678
Flags: W
HStem: 0.000976562 118.307<114.436 460.123> 581.264 20G<460.123 574.565>
VStem: -0 114.436<118.308 600.149> 460.123 114.442<118.308 601.264>
LayerCount: 4
Fore
SplineSet
460.123046875 601.263671875 m 1
 574.565429688 601.263671875 l 1
 574.565429688 118.307617188 l 1
 460.123046875 118.307617188 l 1
 460.123046875 601.263671875 l 1
460.123046875 118.307617188 m 1
 460.123046875 0.0009765625 l 1
 114.435546875 0.0009765625 l 1
 114.435546875 118.307617188 l 1
 460.123046875 118.307617188 l 1
114.435546875 118.307617188 m 1
 -0 118.307617188 l 1
 -0 600.149414062 l 1
 114.435546875 600.149414062 l 1
 114.435546875 118.307617188 l 1
EndSplineSet
Validated: 5
EndChar

StartChar: w
Encoding: 119 119 22
Width: 1008
Flags: W
HStem: 0.000976562 118.449<114.581 390.163 504.744 781.031> 581.606 20G<0 114.581 390.163 504.744 781.031 895.612>
VStem: -0 114.581<118.45 601.606> 390.163 114.581<118.45 600.874> 781.031 114.581<118.45 601.264>
LayerCount: 4
Fore
SplineSet
-0 601.606445312 m 1
 114.581054688 601.606445312 l 1
 114.581054688 118.450195312 l 1
 390.163085938 118.450195312 l 1
 390.163085938 0.0009765625 l 1
 114.581054688 0.0009765625 l 1
 114.581054688 118.040039062 l 1
 -0 118.040039062 l 1
 -0 601.606445312 l 1
390.163085938 118.450195312 m 1
 390.163085938 600.874023438 l 1
 504.744140625 600.874023438 l 1
 504.744140625 118.450195312 l 1
 781.03125 118.450195312 l 1
 781.03125 0.0009765625 l 1
 504.55859375 0.0009765625 l 1
 504.55859375 118.450195312 l 1
 390.163085938 118.450195312 l 1
781.03125 118.450195312 m 1
 781.03125 601.263671875 l 1
 895.612304688 601.263671875 l 1
 895.612304688 118.450195312 l 1
 781.03125 118.450195312 l 1
EndSplineSet
Validated: 5
EndChar

StartChar: x
Encoding: 120 120 23
Width: 615
Flags: W
HStem: 0.000976562 198.407<0 114.765 391.725 506.489> 198.408 118.667<114.765 391.725> 317.075 284.188<0 114.765 391.725 506.489>
VStem: -0 114.765<0.000976562 198.408 317.075 601.264> 391.725 114.765<0.000976562 198.408 317.075 601.264>
LayerCount: 4
Fore
SplineSet
-0 601.263671875 m 1x38
 114.764648438 601.263671875 l 1x38
 114.764648438 317.075195312 l 1x58
 -0 317.075195312 l 1
 -0 601.263671875 l 1x38
114.764648438 317.075195312 m 1x58
 391.724609375 317.075195312 l 1x58
 391.724609375 198.408203125 l 1
 114.764648438 198.408203125 l 1x98
 114.764648438 317.075195312 l 1x58
391.724609375 317.075195312 m 1
 391.724609375 601.263671875 l 1
 506.489257812 601.263671875 l 1
 506.489257812 317.075195312 l 1x38
 391.724609375 317.075195312 l 1
391.724609375 198.408203125 m 1x98
 506.489257812 198.408203125 l 1
 506.489257812 0.0009765625 l 1
 391.724609375 0.0009765625 l 1
 391.724609375 198.408203125 l 1x98
114.764648438 198.408203125 m 1
 114.764648438 0.0009765625 l 1
 -0 0.0009765625 l 1
 -0 198.408203125 l 1
 114.764648438 198.408203125 l 1
EndSplineSet
Validated: 5
EndChar

StartChar: y
Encoding: 121 121 24
Width: 666
Flags: WO
HStem: -118.467 118.468<0 435.233> 0.000976562 21G<435.233 549.898> 0.000976562 21G<435.233 549.898> 118.524 80.1436<114.672 435.233> 581.264 20G<0 114.672 435.233 549.898>
VStem: -0 114.672<198.668 601.264> 435.233 114.665<0.000976562 118.524 198.668 601.264>
LayerCount: 4
Fore
SplineSet
-0 601.263671875 m 1x1e
 114.671875 601.263671875 l 1
 114.671875 198.66796875 l 1
 -0 198.66796875 l 1
 -0 601.263671875 l 1x1e
  Spiro
    -0 601.264 v
    114.672 601.264 v
    114.672 198.668 v
    -0 198.668 v
    0 0 z
  EndSpiro
114.671875 198.66796875 m 1
 435.233398438 198.66796875 l 1
 435.233398438 601.263671875 l 1
 549.8984375 601.263671875 l 1
 549.8984375 0.0009765625 l 1x5e
 435.233398438 0.0009765625 l 1x9e
 435.233398438 118.524414062 l 1
 114.671875 118.524414062 l 1
 114.671875 198.66796875 l 1
  Spiro
    114.672 198.668 v
    435.233 198.668 v
    435.233 601.264 v
    549.898 601.264 v
    549.898 0.000976562 v
    435.233 0.000976562 v
    435.233 118.524 v
    114.672 118.524 v
    0 0 z
  EndSpiro
435.233398438 0.0009765625 m 1x9e
 435.233398438 -118.466796875 l 1
 -0 -118.466796875 l 1
 -0 0.0009765625 l 1
 435.233398438 0.0009765625 l 1x9e
  Spiro
    435.233 0.000976562 v
    435.233 -118.467 v
    -0 -118.467 v
    -0 0.000976562 v
    0 0 z
  EndSpiro
EndSplineSet
Validated: 524293
EndChar

StartChar: z
Encoding: 122 122 25
Width: 661
Flags: W
HStem: 0.000976562 198.235<0 114.672> 0.000976562 118.112<114.672 553.022> 198.305 118.428<114.692 439.214> 482.816 118.447<0 439.193>
VStem: -0 114.672<118.113 198.236> 439.193 114.693<316.76 482.816>
LayerCount: 4
Fore
SplineSet
-0 601.263671875 m 1x3c
 553.866210938 601.263671875 l 1
 553.866210938 482.81640625 l 1
 553.88671875 482.81640625 l 1
 553.88671875 316.759765625 l 1
 439.193359375 316.759765625 l 1
 439.193359375 482.81640625 l 1
 -0 482.81640625 l 1
 -0 601.263671875 l 1x3c
114.692382812 316.732421875 m 1
 439.213867188 316.732421875 l 1
 439.213867188 198.3046875 l 1
 114.692382812 198.3046875 l 1
 114.692382812 316.732421875 l 1
-0 198.236328125 m 1xbc
 114.671875 198.236328125 l 1xbc
 114.671875 118.11328125 l 1
 553.022460938 118.11328125 l 1
 553.022460938 0.0009765625 l 1x7c
 -0 0.0009765625 l 1xbc
 -0 118.11328125 l 1x7c
 -0 198.236328125 l 1xbc
EndSplineSet
Validated: 1
EndChar

StartChar: hyphen
Encoding: 45 45 28
Width: 496
Flags: W
HStem: 275.18 102.832<0 380.203>
LayerCount: 4
Fore
SplineSet
-0 275.1796875 m 1
 -0 378.01171875 l 1
 380.203125 378.01171875 l 1
 380.203125 275.1796875 l 1
 -0 275.1796875 l 1
EndSplineSet
Validated: 1
EndChar

StartChar: A
Encoding: 65 65 29
Width: 900
Flags: W
HStem: 0.000976562 21G<0 114.543 670.774 785.316> 0.000976562 21G<0 114.543 670.774 785.316> 198.379 118.435<114.543 670.774> 681.565 118.435<114.543 670.774>
VStem: 0 114.543<0.000976562 198.379 316.813 681.565> 670.774 114.542<0.000976562 198.379 316.813 681.565>
LayerCount: 4
Fore
SplineSet
114.54296875 800 m 1x3c
 670.774414062 800 l 1
 670.774414062 681.565429688 l 1
 114.54296875 681.565429688 l 1
 114.54296875 800 l 1x3c
670.774414062 681.565429688 m 1
 785.31640625 681.565429688 l 1
 785.31640625 0.0009765625 l 1
 670.774414062 0.0009765625 l 1
 670.774414062 198.37890625 l 1
 114.54296875 198.37890625 l 1
 114.54296875 0.0009765625 l 1
 0 0.0009765625 l 1xbc
 0 681.565429688 l 1
 114.54296875 681.565429688 l 1
 114.54296875 316.813476562 l 1
 670.774414062 316.813476562 l 1
 670.774414062 681.565429688 l 1
EndSplineSet
Validated: 5
EndChar

StartChar: B
Encoding: 66 66 30
Width: 750
Flags: W
HStem: 0.000976562 118.412<114.542 518.673> 364.274 118.436<114.542 518.833> 482.71 198.855<518.855 633.397> 681.565 118.435<114.542 518.833>
VStem: 0 114.542<118.413 364.274 482.71 681.565> 518.833 114.564<118.413 364.274 482.71 681.565>
LayerCount: 4
Fore
SplineSet
0 800 m 1xdc
 518.85546875 800 l 1xdc
 518.85546875 681.565429688 l 1
 633.397460938 681.565429688 l 1
 633.397460938 482.709960938 l 1xac
 518.833007812 482.709960938 l 1
 518.833007812 681.565429688 l 1
 114.541992188 681.565429688 l 1
 114.541992188 482.709960938 l 1
 518.833007812 482.709960938 l 1
 518.833007812 364.274414062 l 1
 114.541992188 364.274414062 l 1
 114.541992188 118.413085938 l 1
 0 118.413085938 l 1
 0 681.565429688 l 1
 0 800 l 1xdc
518.833007812 364.274414062 m 1
 633.397460938 364.274414062 l 1
 633.397460938 118.413085938 l 1
 518.833007812 118.413085938 l 1
 518.833007812 364.274414062 l 1
114.541992188 118.413085938 m 1
 518.672851562 118.413085938 l 1
 518.672851562 0.0009765625 l 1
 114.541992188 0.0009765625 l 1
 114.541992188 118.413085938 l 1
EndSplineSet
Validated: 5
EndChar

StartChar: C
Encoding: 67 67 31
Width: 835
Flags: W
HStem: 0.000976562 118.509<114.525 606.314> 118.51 198.441<606.314 720.841> 482.755 198.827<606.314 720.841> 681.582 118.418<114.525 606.314>
VStem: 0 114.525<118.51 681.582> 606.314 114.526<118.51 316.951 482.755 681.582>
LayerCount: 4
Fore
SplineSet
114.525390625 800 m 1x1c
 606.314453125 800 l 1x1c
 606.314453125 681.58203125 l 1x2c
 114.525390625 681.58203125 l 1
 114.525390625 800 l 1x1c
606.314453125 681.58203125 m 1x2c
 720.840820312 681.58203125 l 1
 720.840820312 482.754882812 l 1
 606.314453125 482.754882812 l 1
 606.314453125 681.58203125 l 1x2c
114.525390625 681.58203125 m 1x5c
 114.525390625 118.509765625 l 1x9c
 0 118.509765625 l 1
 0 681.58203125 l 1
 114.525390625 681.58203125 l 1x5c
114.525390625 118.509765625 m 1
 606.314453125 118.509765625 l 1
 606.314453125 0.0009765625 l 1
 114.525390625 0.0009765625 l 1
 114.525390625 118.509765625 l 1
606.314453125 118.509765625 m 1
 606.314453125 316.951171875 l 1
 720.840820312 316.951171875 l 1
 720.840820312 118.509765625 l 1x4c
 606.314453125 118.509765625 l 1
EndSplineSet
Validated: 5
EndChar

StartChar: V
Encoding: 86 86 32
Width: 869
Flags: W
HStem: 0.000976562 118.463<114.592 642.299> 780 20G<0 114.592 642.299 756.891>
VStem: 0 114.592<118.464 800> 642.299 114.592<118.464 800>
LayerCount: 4
Fore
SplineSet
0 800 m 1
 114.591796875 800 l 1
 114.591796875 118.463867188 l 1
 0 118.463867188 l 1
 0 800 l 1
114.591796875 118.463867188 m 1
 642.298828125 118.463867188 l 1
 642.298828125 0.0009765625 l 1
 114.591796875 0.0009765625 l 1
 114.591796875 118.463867188 l 1
642.298828125 118.463867188 m 1
 642.298828125 800 l 1
 756.890625 800 l 1
 756.890625 118.463867188 l 1
 642.298828125 118.463867188 l 1
EndSplineSet
Validated: 5
EndChar

StartChar: D
Encoding: 68 68 33
Width: 802
Flags: W
HStem: 0.000976562 118.412<114.542 570.914> 681.565 118.435<114.542 570.914>
VStem: 0 114.542<118.413 681.565> 570.914 114.542<118.413 681.565>
LayerCount: 4
Fore
SplineSet
0 800 m 1
 570.9140625 800 l 1
 570.9140625 681.565429688 l 1
 114.541992188 681.565429688 l 1
 114.541992188 118.413085938 l 1
 0 118.413085938 l 1
 0 681.565429688 l 1
 0 800 l 1
570.9140625 681.565429688 m 1
 685.456054688 681.565429688 l 1
 685.456054688 118.413085938 l 1
 570.9140625 118.413085938 l 1
 570.9140625 681.565429688 l 1
570.9140625 118.413085938 m 1
 570.9140625 0.0009765625 l 1
 114.541992188 0.0009765625 l 1
 114.541992188 118.413085938 l 1
 570.9140625 118.413085938 l 1
EndSplineSet
Validated: 5
EndChar

StartChar: E
Encoding: 69 69 34
Width: 691
Flags: W
HStem: 0.000976562 118.412<114.542 556.778> 364.457 118.435<114.542 556.778> 681.565 118.435<114.542 575.33>
VStem: 0 114.542<118.413 364.457 482.892 681.565>
LayerCount: 4
Fore
SplineSet
0 800 m 1
 81.30859375 800 l 1
 114.541992188 800 l 1
 575.330078125 800 l 1
 575.330078125 681.565429688 l 1
 114.541992188 681.565429688 l 1
 114.541992188 482.891601562 l 1
 556.778320312 482.891601562 l 1
 556.778320312 364.45703125 l 1
 114.541992188 364.45703125 l 1
 114.541992188 118.413085938 l 1
 0 118.413085938 l 1
 0 800 l 1
114.541992188 118.413085938 m 1
 556.778320312 118.413085938 l 1
 556.778320312 0.0009765625 l 1
 114.541992188 0.0009765625 l 1
 114.541992188 118.413085938 l 1
EndSplineSet
Validated: 5
EndChar

StartChar: F
Encoding: 70 70 35
Width: 664
Flags: W
HStem: 0.000976562 21G<0 114.542> 0.000976562 21G<0 114.542> 364.456 118.436<114.542 433.563> 681.565 118.435<114.542 548.105>
VStem: 0 114.542<0.000976562 364.456 482.892 681.565>
LayerCount: 4
Fore
SplineSet
114.541992188 800 m 1x38
 548.10546875 800 l 1
 548.10546875 681.565429688 l 1
 114.541992188 681.565429688 l 1
 114.541992188 800 l 1x38
114.541992188 681.565429688 m 1
 114.541992188 482.891601562 l 1
 433.563476562 482.891601562 l 1
 433.563476562 364.456054688 l 1
 114.541992188 364.456054688 l 1
 114.541992188 0.0009765625 l 1
 0 0.0009765625 l 1xb8
 0 681.565429688 l 1
 114.541992188 681.565429688 l 1
EndSplineSet
Validated: 5
EndChar

StartChar: G
Encoding: 71 71 36
Width: 837
Flags: W
HStem: 0.000976562 118.412<114.542 606.401> 364.274 118.435<345.63 606.401> 681.565 118.435<114.542 720.943>
VStem: 0 114.542<118.413 681.565> 606.401 114.542<118.413 364.274>
LayerCount: 4
Fore
SplineSet
114.541992188 800 m 1
 720.943359375 800 l 1
 720.943359375 681.565429688 l 1
 114.541992188 681.565429688 l 1
 114.541992188 800 l 1
114.541992188 681.565429688 m 1
 114.541992188 118.413085938 l 1
 0 118.413085938 l 1
 0 681.565429688 l 1
 114.541992188 681.565429688 l 1
114.541992188 118.413085938 m 1
 606.401367188 118.413085938 l 1
 606.401367188 364.274414062 l 1
 720.943359375 364.274414062 l 1
 720.943359375 118.413085938 l 1
 720.943359375 0.0009765625 l 1
 114.541992188 0.0009765625 l 1
 114.541992188 118.413085938 l 1
606.401367188 364.274414062 m 1
 345.629882812 364.274414062 l 1
 345.629882812 482.708984375 l 1
 606.401367188 482.708984375 l 1
 606.401367188 364.274414062 l 1
EndSplineSet
Validated: 5
EndChar

StartChar: H
Encoding: 72 72 37
Width: 774
Flags: W
HStem: 0.000976562 21G<0 114.393 543.661 658.054> 0.000976562 21G<0 114.393 543.661 658.054> 363.798 118.28<114.393 543.661> 780 20G<0 114.393 543.661 658.054>
VStem: 0 114.393<0.000976562 363.798 482.078 800> 543.661 114.393<0.000976562 363.798 482.078 800>
LayerCount: 4
Fore
SplineSet
0 800 m 1xbc
 114.392578125 800 l 1
 114.392578125 482.078125 l 1
 543.661132812 482.078125 l 1
 543.661132812 800 l 1
 658.053710938 800 l 1
 658.053710938 0.0009765625 l 1
 543.661132812 0.0009765625 l 1
 543.661132812 363.797851562 l 1
 114.392578125 363.797851562 l 1
 114.392578125 0.0009765625 l 1
 0 0.0009765625 l 1
 0 800 l 1xbc
EndSplineSet
Validated: 1
EndChar

StartChar: I
Encoding: 73 73 38
Width: 227
Flags: W
HStem: 0.000976562 21G<0 113.071> 0.000976562 21G<0 113.071> 780 20G<0 113.071>
VStem: -0 113.071<0.000976562 800>
LayerCount: 4
Fore
SplineSet
-0 0.0009765625 m 1xb0
 -0 800 l 1
 113.071289062 800 l 1
 113.071289062 0.0009765625 l 1
 -0 0.0009765625 l 1xb0
EndSplineSet
Validated: 1
EndChar

StartChar: J
Encoding: 74 74 39
Width: 693
Flags: W
HStem: 0.000976562 116.522<114.52 466.294> 118.39 198.361<0 114.52> 780 20G<466.294 580.837>
VStem: 0 114.52<118.39 316.751> 466.294 114.543<118.39 800>
LayerCount: 4
Fore
SplineSet
466.293945312 800 m 1
 580.836914062 800 l 1
 580.836914062 118.389648438 l 1
 466.293945312 118.389648438 l 1
 466.293945312 800 l 1
0 316.750976562 m 1
 114.51953125 316.750976562 l 1
 114.51953125 118.389648438 l 1
 0 118.389648438 l 1
 0 316.750976562 l 1
114.51953125 116.5234375 m 1
 466.293945312 116.5234375 l 1
 466.293945312 0.0009765625 l 1
 114.51953125 0.0009765625 l 1
 114.51953125 116.5234375 l 1
EndSplineSet
Validated: 1
EndChar

StartChar: K
Encoding: 75 75 40
Width: 783
Flags: W
HStem: 0.000976562 21G<0 114.221> 0.000976562 21G<0 114.221> 364.454 118.103<114.221 440.448> 780 20G<440.448 554.669>
VStem: 0 114.221<0.000976562 364.454 482.557 798.797> 440.448 114.221<482.557 800> 554.669 114.221<1.2041 364.454>
LayerCount: 4
Fore
SplineSet
440.448242188 800 m 1xbc
 554.668945312 800 l 1
 554.668945312 482.556640625 l 1xbc
 611.779296875 482.556640625 l 1
 668.889648438 482.556640625 l 1
 668.889648438 1.2041015625 l 1
 554.668945312 1.2041015625 l 1
 554.668945312 364.454101562 l 1xba
 114.220703125 364.454101562 l 1
 114.220703125 0.0009765625 l 1
 0 0.0009765625 l 1
 0 798.796875 l 1
 114.220703125 798.796875 l 1
 114.220703125 482.556640625 l 1
 440.448242188 482.556640625 l 1
 440.448242188 800 l 1xbc
EndSplineSet
Validated: 1
EndChar

StartChar: L
Encoding: 76 76 41
Width: 670
Flags: W
HStem: 0.000976562 118.257<114.393 557.551> 780 20G<0 114.393>
VStem: 0 114.393<118.258 800>
LayerCount: 4
Fore
SplineSet
0 800 m 1
 114.392578125 800 l 1
 114.392578125 118.2578125 l 1
 557.55078125 118.2578125 l 1
 557.55078125 0.0009765625 l 1
 114.392578125 0.0009765625 l 1
 44.669921875 0.0009765625 l 1
 0 0.0009765625 l 1
 0 800 l 1
EndSplineSet
Validated: 1
EndChar

StartChar: M
Encoding: 77 77 42
Width: 990
Flags: W
HStem: -0.0878906 21G<762.617 876.824> -0.0878906 21G<762.617 876.824> 680.867 119.133<114.208 381.32 495.527 762.617>
VStem: 0 114.208<1.2959 680.867> 381.32 114.207<1.2959 680.867> 762.617 114.207<-0.0878906 680.867>
LayerCount: 4
Fore
SplineSet
0 800 m 1x3c
 44.9609375 800 l 1
 114.208007812 800 l 1
 381.3203125 800 l 1
 381.3203125 682.229492188 l 1
 495.52734375 682.229492188 l 1
 495.52734375 800 l 1
 762.6171875 800 l 1
 762.6171875 680.8671875 l 1
 495.52734375 680.8671875 l 1
 495.52734375 1.2958984375 l 1
 381.3203125 1.2958984375 l 1
 381.3203125 680.8671875 l 1
 114.208007812 680.8671875 l 1
 114.208007812 1.2958984375 l 1
 0 1.2958984375 l 1
 0 800 l 1x3c
762.6171875 680.8671875 m 1
 876.82421875 680.8671875 l 1
 876.82421875 -0.087890625 l 1
 762.6171875 -0.087890625 l 1xbc
 762.6171875 680.8671875 l 1
EndSplineSet
Validated: 5
EndChar

StartChar: N
Encoding: 78 78 43
Width: 777
Flags: W
HStem: 0.000976562 118.258<400.852 547.389> 680.674 118.417<114.393 286.459>
VStem: 0 114.393<0.000976562 680.674> 286.459 114.393<118.259 680.674> 547.389 114.393<118.259 800>
LayerCount: 4
Fore
SplineSet
547.388671875 800 m 1
 661.78125 800 l 1
 661.78125 118.258789062 l 1
 661.78125 0.0009765625 l 1
 400.8515625 0.0009765625 l 1
 400.8515625 118.258789062 l 1
 547.388671875 118.258789062 l 1
 547.388671875 800 l 1
400.8515625 118.258789062 m 1
 286.458984375 118.258789062 l 1
 286.458984375 680.673828125 l 1
 400.8515625 680.673828125 l 1
 400.8515625 118.258789062 l 1
286.458984375 680.673828125 m 1
 114.392578125 680.673828125 l 1
 114.392578125 0.0009765625 l 1
 0 0.0009765625 l 1
 0 799.090820312 l 1
 114.392578125 799.090820312 l 1
 286.458984375 799.090820312 l 1
 286.458984375 680.673828125 l 1
EndSplineSet
Validated: 5
EndChar

StartChar: O
Encoding: 79 79 44
Width: 846
Flags: W
HStem: 0.000976562 118.258<114.393 618.43> 680.674 119.326<114.393 618.43>
VStem: 0 114.393<118.259 680.674> 618.43 114.393<118.259 680.674>
LayerCount: 4
Fore
SplineSet
114.392578125 800 m 1
 618.4296875 800 l 1
 618.4296875 680.673828125 l 1
 114.392578125 680.673828125 l 1
 114.392578125 800 l 1
618.4296875 680.673828125 m 1
 732.822265625 680.673828125 l 1
 732.822265625 118.258789062 l 1
 618.4296875 118.258789062 l 1
 618.4296875 680.673828125 l 1
618.4296875 118.258789062 m 1
 618.4296875 0.0009765625 l 1
 114.392578125 0.0009765625 l 1
 114.392578125 118.258789062 l 1
 618.4296875 118.258789062 l 1
114.392578125 118.258789062 m 1
 0 118.258789062 l 1
 0 680.673828125 l 1
 114.392578125 680.673828125 l 1
 114.392578125 118.258789062 l 1
EndSplineSet
Validated: 5
EndChar

StartChar: P
Encoding: 80 80 45
Width: 738
Flags: W
HStem: 0.000976562 21G<0 114.471> 0.000976562 21G<0 114.471> 198.323 118.292<114.471 510.25> 681.707 118.293<114.471 510.25>
VStem: 0 114.471<0.000976562 198.323 316.615 681.139> 510.25 114.471<316.615 681.139>
LayerCount: 4
Fore
SplineSet
114.470703125 800 m 1x3c
 510.25 800 l 1
 510.25 681.70703125 l 1
 114.470703125 681.70703125 l 1
 114.470703125 800 l 1x3c
0 681.138671875 m 1
 114.470703125 681.138671875 l 1
 114.470703125 316.615234375 l 1
 510.25 316.615234375 l 1
 510.25 198.323242188 l 1
 114.470703125 198.323242188 l 1
 114.470703125 0.0009765625 l 1
 0 0.0009765625 l 1xbc
 0 681.138671875 l 1
510.25 316.615234375 m 1
 510.25 681.138671875 l 1
 624.720703125 681.138671875 l 1
 624.720703125 316.615234375 l 1
 510.25 316.615234375 l 1
EndSplineSet
Validated: 5
EndChar

StartChar: Q
Encoding: 81 81 46
Width: 846
Flags: W
HStem: 0.000976562 118.257<114.393 436.406 550.822 618.43> 680.674 119.326<114.393 618.43>
VStem: 0 114.393<118.258 680.674> 436.406 114.416<-118.188 0.000976562> 618.43 114.393<118.258 680.674>
LayerCount: 4
Fore
SplineSet
114.392578125 800 m 1
 618.4296875 800 l 1
 618.4296875 680.673828125 l 1
 114.392578125 680.673828125 l 1
 114.392578125 800 l 1
618.4296875 680.673828125 m 1
 732.822265625 680.673828125 l 1
 732.822265625 118.2578125 l 1
 618.4296875 118.2578125 l 1
 618.4296875 680.673828125 l 1
618.4296875 118.2578125 m 1
 618.4296875 0.0009765625 l 1
 550.822265625 0.0009765625 l 1
 550.822265625 -118.1875 l 1
 436.40625 -118.1875 l 1
 436.40625 0.0009765625 l 1
 114.392578125 0.0009765625 l 1
 114.392578125 118.2578125 l 1
 618.4296875 118.2578125 l 1
114.392578125 118.2578125 m 1
 0 118.2578125 l 1
 0 680.673828125 l 1
 114.392578125 680.673828125 l 1
 114.392578125 118.2578125 l 1
EndSplineSet
Validated: 5
EndChar

StartChar: R
Encoding: 82 82 47
Width: 731
Flags: W
HStem: 0.000976562 198.322<503.028 617.512> 198.323 118.328<114.483 503.028> 681.216 118.784<114.483 503.028>
VStem: 0 114.483<0.000976562 198.323 316.651 681.216> 503.028 114.483<0.000976562 198.323 316.651 681.216>
LayerCount: 4
Fore
SplineSet
0 800 m 1xb8
 503.028320312 800 l 1
 503.028320312 681.215820312 l 1
 114.483398438 681.215820312 l 1
 114.483398438 316.651367188 l 1
 503.028320312 316.651367188 l 1x78
 503.028320312 198.323242188 l 1xb8
 114.483398438 198.323242188 l 1x78
 114.483398438 0.0009765625 l 1
 0 0.0009765625 l 1
 0 681.215820312 l 1
 0 799.727539062 l 1
 0 800 l 1xb8
503.028320312 681.215820312 m 1
 617.51171875 681.215820312 l 1
 617.51171875 316.651367188 l 1
 503.028320312 316.651367188 l 1
 503.028320312 681.215820312 l 1
503.028320312 198.323242188 m 1xb8
 617.51171875 198.323242188 l 1
 617.51171875 0.0009765625 l 1
 503.028320312 0.0009765625 l 1
 503.028320312 198.323242188 l 1xb8
EndSplineSet
Validated: 5
EndChar

StartChar: S
Encoding: 83 83 48
Width: 756
Flags: W
HStem: 0.000976562 117.709<0 528.49> 117.71 79.5361<528.49 642.353> 197.246 117.686<113.861 528.49> 677.517 122.483<113.861 642.353>
VStem: 0 113.861<315 677.517> 528.49 113.862<117.71 197.246>
LayerCount: 4
Fore
SplineSet
113.861328125 800 m 1x1c
 642.352539062 800 l 1
 642.352539062 677.516601562 l 1
 113.861328125 677.516601562 l 1
 113.861328125 800 l 1x1c
113.861328125 677.516601562 m 1
 113.861328125 315 l 1
 0 315 l 1
 0 677.516601562 l 1
 113.861328125 677.516601562 l 1
113.861328125 314.931640625 m 1x3c
 528.490234375 314.931640625 l 1x3c
 528.490234375 197.24609375 l 1x5c
 113.861328125 197.24609375 l 1
 113.861328125 314.931640625 l 1x3c
528.490234375 197.24609375 m 1x5c
 642.352539062 197.24609375 l 1
 642.352539062 117.709960938 l 1x5c
 528.490234375 117.709960938 l 1x9c
 528.490234375 197.24609375 l 1x5c
528.490234375 117.709960938 m 1x9c
 528.490234375 0.0009765625 l 1
 0 0.0009765625 l 1
 0 117.709960938 l 1
 528.490234375 117.709960938 l 1x9c
EndSplineSet
Validated: 5
EndChar

StartChar: T
Encoding: 84 84 49
Width: 799
Flags: W
HStem: 0.000976562 21G<285.036 399.251> 0.000976562 21G<285.036 399.251> 679.612 120.388<0 285.036 399.251 684.287>
VStem: 285.036 114.215<0.000976562 679.612>
LayerCount: 4
Fore
SplineSet
0 800 m 1xb0
 684.287109375 800 l 1
 684.287109375 679.612304688 l 1
 399.250976562 679.612304688 l 1
 399.250976562 0.0009765625 l 1
 285.036132812 0.0009765625 l 1
 285.036132812 679.612304688 l 1
 0 679.612304688 l 1
 0 800 l 1xb0
EndSplineSet
Validated: 1
EndChar

StartChar: U
Encoding: 85 85 50
Width: 791
Flags: W
HStem: 0.000976562 116.371<114.393 562.666> 780 20G<0 114.393 562.666 677.059>
VStem: 0 114.393<118.259 800> 562.666 114.393<116.372 800>
LayerCount: 4
Fore
SplineSet
0 800 m 1
 114.392578125 800 l 1
 114.392578125 118.258789062 l 1
 0 118.258789062 l 1
 0 800 l 1
562.666015625 800 m 1
 677.05859375 800 l 1
 677.05859375 0.0009765625 l 1
 588.263671875 0.0009765625 l 1
 114.392578125 0.0009765625 l 1
 114.392578125 116.372070312 l 1
 562.666015625 116.372070312 l 1
 562.666015625 800 l 1
EndSplineSet
Validated: 1
EndChar

StartChar: W
Encoding: 87 87 51
Width: 1284
Flags: W
HStem: 0 118.335<115 511.862 626.329 1023.19> 780.523 20G<0.533203 115 511.862 626.329 1023.19 1137.66>
VStem: 0.533203 114.467<118.335 800.523> 511.862 114.467<118.335 800.523> 1023.19 114.47<118.335 800.523>
LayerCount: 4
Fore
SplineSet
0.533203125 800.5234375 m 1
 115 800.5234375 l 1
 115 118.334960938 l 1
 0.533203125 118.334960938 l 1
 0.533203125 800.5234375 l 1
115 118.334960938 m 1
 511.862304688 118.334960938 l 1
 511.862304688 0 l 1
 115 0 l 1
 115 118.334960938 l 1
511.862304688 118.334960938 m 1
 511.862304688 800.5234375 l 1
 626.329101562 800.5234375 l 1
 626.329101562 118.334960938 l 1
 511.862304688 118.334960938 l 1
626.329101562 118.334960938 m 1
 1023.18945312 118.334960938 l 1
 1023.18945312 0 l 1
 626.329101562 0 l 1
 626.329101562 118.334960938 l 1
1023.18945312 118.334960938 m 1
 1023.18945312 800.5234375 l 1
 1137.65917969 800.5234375 l 1
 1137.65917969 118.334960938 l 1
 1023.18945312 118.334960938 l 1
EndSplineSet
Validated: 5
EndChar

StartChar: X
Encoding: 88 88 52
Width: 872
Flags: W
HStem: 0.000976562 198.164<0 114.393 614.088 728.48> 198.165 118.234<114.393 614.065> 780 20G<0 114.393 614.065 728.48>
VStem: 0 114.393<0.000976562 198.165 316.399 800> 614.065 114.415<0.000976562 198.165 316.399 800>
LayerCount: 4
Fore
SplineSet
0 800 m 1x78
 114.392578125 800 l 1
 114.392578125 316.399414062 l 1
 0 316.399414062 l 1
 0 800 l 1x78
114.392578125 316.399414062 m 1
 614.065429688 316.399414062 l 1
 614.065429688 800 l 1
 728.48046875 800 l 1
 728.48046875 316.399414062 l 1
 614.087890625 316.399414062 l 1x78
 614.087890625 198.165039062 l 1
 728.48046875 198.165039062 l 1
 728.48046875 0.0009765625 l 1
 614.065429688 0.0009765625 l 1xb8
 614.065429688 198.165039062 l 1x78
 114.392578125 198.165039062 l 1xb8
 114.392578125 316.399414062 l 1
114.392578125 198.165039062 m 1xb8
 114.392578125 0.0009765625 l 1
 0 0.0009765625 l 1
 0 198.165039062 l 1
 114.392578125 198.165039062 l 1xb8
EndSplineSet
Validated: 5
EndChar

StartChar: Y
Encoding: 89 89 53
Width: 858
Flags: W
HStem: 0.000976562 21G<297.279 411.673> 0.000976562 21G<297.279 411.673> 198.165 118.235<114.393 297.279 411.673 600.447> 780 20G<0 114.393 600.447 714.84>
VStem: 0 114.393<316.4 800> 297.279 114.394<0.000976562 198.165> 600.447 114.393<316.4 800>
LayerCount: 4
Fore
SplineSet
0 800 m 1x3e
 114.392578125 800 l 1
 114.392578125 316.400390625 l 1
 0 316.400390625 l 1
 0 800 l 1x3e
114.392578125 316.400390625 m 1
 600.447265625 316.400390625 l 1
 600.447265625 198.165039062 l 1
 411.672851562 198.165039062 l 1
 411.672851562 0.0009765625 l 1
 297.279296875 0.0009765625 l 1xbe
 297.279296875 198.165039062 l 1
 114.392578125 198.165039062 l 1
 114.392578125 316.400390625 l 1
600.447265625 316.400390625 m 1
 600.447265625 800 l 1
 714.83984375 800 l 1
 714.83984375 316.400390625 l 1
 600.447265625 316.400390625 l 1
EndSplineSet
Validated: 5
EndChar

StartChar: Z
Encoding: 90 90 54
Width: 807
InSpiro: 1
Flags: W
HStem: 0.000976562 197.805<0 114.172> 0.000976562 116.169<114.172 664.612> 197.806 117.984<114.172 550.439> 679.361 120.639<0 550.439>
VStem: 0 114.172<116.17 197.806> 550.439 114.173<315.79 679.361>
LayerCount: 4
Fore
SplineSet
0 800 m 1x3c
 664.612304688 800 l 1
 664.612304688 751.78515625 l 1
 664.612304688 315.790039062 l 1
 550.439453125 315.790039062 l 1
 550.439453125 679.361328125 l 1
 0 679.361328125 l 1
 0 800 l 1x3c
  Spiro
    0 800 v
    664.612 800 v
    664.612 751.785 v
    664.612 315.79 v
    550.439 315.79 v
    550.439 679.361 v
    0 679.361 v
    0 0 z
  EndSpiro
550.439453125 315.790039062 m 1
 550.439453125 197.805664062 l 1x3c
 114.171875 197.805664062 l 1x9c
 114.171875 315.790039062 l 1
 550.439453125 315.790039062 l 1
  Spiro
    550.439 315.79 v
    550.439 197.806 v
    114.172 197.806 v
    114.172 315.79 v
    0 0 z
  EndSpiro
114.171875 197.805664062 m 1x9c
 114.171875 116.169921875 l 1
 664.612304688 116.169921875 l 1
 664.612304688 0.0009765625 l 1x5c
 0 0.0009765625 l 1x9c
 0 116.169921875 l 1x5c
 0 197.805664062 l 1
 114.171875 197.805664062 l 1x9c
  Spiro
    114.172 197.806 v
    114.172 116.17 v
    664.612 116.17 v
    664.612 0.000976562 v
    0 0.000976562 v
    0 116.17 v
    0 197.806 v
    0 0 z
  EndSpiro
EndSplineSet
Validated: 5
EndChar

StartChar: zero
Encoding: 48 48 55
Width: 775
Flags: W
HStem: 0.000976562 117.303<114.393 543.115> 681.606 118.394<114.393 543.115>
VStem: 0 114.393<117.304 680.674> 543.115 114.393<117.304 680.674>
LayerCount: 4
Fore
SplineSet
114.392578125 800 m 1
 543.115234375 800 l 1
 543.115234375 681.606445312 l 1
 114.392578125 681.606445312 l 1
 114.392578125 800 l 1
0 680.673828125 m 1
 114.392578125 680.673828125 l 1
 114.392578125 117.303710938 l 1
 0 117.303710938 l 1
 0 680.673828125 l 1
114.392578125 117.303710938 m 1
 543.115234375 117.303710938 l 1
 543.115234375 0.0009765625 l 1
 114.392578125 0.0009765625 l 1
 114.392578125 117.303710938 l 1
543.115234375 117.303710938 m 1
 543.115234375 680.673828125 l 1
 657.5078125 680.673828125 l 1
 657.5078125 117.303710938 l 1
 543.115234375 117.303710938 l 1
EndSplineSet
Validated: 5
EndChar

StartChar: one
Encoding: 49 49 56
Width: 405
Flags: W
HStem: 0.000976562 21G<173.896 288.416> 0.000976562 21G<173.896 288.416> 600.979 79.5176<0 173.896> 780 20G<173.896 288.416>
VStem: 173.896 114.521<0.000976562 600.979 680.496 800>
LayerCount: 4
Fore
SplineSet
173.895507812 800 m 1xb8
 288.416015625 800 l 1
 288.416015625 0.0009765625 l 1
 173.895507812 0.0009765625 l 1
 173.895507812 600.978515625 l 1
 0 600.978515625 l 1
 0 680.49609375 l 1
 173.895507812 680.49609375 l 1
 173.895507812 800 l 1xb8
EndSplineSet
Validated: 1
EndChar

StartChar: two
Encoding: 50 50 57
Width: 679
Flags: W
HStem: 0.000976562 197.805<0 114.172> 0.000976562 116.169<114.172 562.965> 197.806 117.984<114.172 448.792> 597.726 202.274<0 114.172> 679.361 120.639<114.172 448.792>
VStem: 0 114.172<116.17 197.806 597.726 679.361> 448.792 114.173<315.79 679.361>
LayerCount: 4
Fore
SplineSet
0 800 m 1x16
 562.96484375 800 l 1
 562.96484375 751.78515625 l 1
 562.96484375 315.790039062 l 1
 448.791992188 315.790039062 l 1
 448.791992188 679.361328125 l 1
 114.171875 679.361328125 l 1x2e
 114.171875 597.725585938 l 1
 0 597.725585938 l 1x16
 0 679.361328125 l 1x0e
 0 800 l 1x16
448.791992188 315.790039062 m 1
 448.791992188 197.805664062 l 1x26
 114.171875 197.805664062 l 1x86
 114.171875 315.790039062 l 1
 448.791992188 315.790039062 l 1
114.171875 197.805664062 m 1x86
 114.171875 116.169921875 l 1
 562.96484375 116.169921875 l 1
 562.96484375 0.0009765625 l 1x46
 0 0.0009765625 l 1x86
 0 116.169921875 l 1x46
 0 197.805664062 l 1
 114.171875 197.805664062 l 1x86
EndSplineSet
Validated: 5
EndChar

StartChar: three
Encoding: 51 51 58
Width: 744
Flags: W
HStem: 0.000976562 116.474<114.493 514.106> 116.998 81.3643<0 114.493> 364.119 118.384<218.794 514.106> 482.503 198.771<514.106 628.622> 600.819 80.4551<0 114.493> 683.527 116.473<114.493 514.106>
VStem: 0 114.493<116.998 198.362 600.819 681.274> 514.106 114.516<116.998 364.119 482.503 681.274>
LayerCount: 4
Fore
SplineSet
114.493164062 800 m 1xc7
 514.106445312 800 l 1
 514.106445312 683.52734375 l 1
 114.493164062 683.52734375 l 1
 114.493164062 800 l 1xc7
0 681.274414062 m 1xcf
 114.493164062 681.274414062 l 1
 114.493164062 600.819335938 l 1
 0 600.819335938 l 1
 0 681.274414062 l 1xcf
514.106445312 681.274414062 m 1xd7
 628.622070312 681.274414062 l 1
 628.622070312 482.502929688 l 1xd7
 514.106445312 482.502929688 l 1xe7
 514.106445312 681.274414062 l 1xd7
514.106445312 482.502929688 m 1xe7
 514.106445312 364.119140625 l 1
 218.793945312 364.119140625 l 1
 218.793945312 482.502929688 l 1
 514.106445312 482.502929688 l 1xe7
514.106445312 364.119140625 m 1
 628.622070312 364.119140625 l 1
 628.622070312 116.998046875 l 1
 514.106445312 116.998046875 l 1
 514.106445312 364.119140625 l 1
0 198.362304688 m 1
 114.493164062 198.362304688 l 1
 114.493164062 116.998046875 l 1
 0 116.998046875 l 1
 0 198.362304688 l 1
114.493164062 116.474609375 m 1
 514.106445312 116.474609375 l 1
 514.106445312 0.0009765625 l 1
 114.493164062 0.0009765625 l 1
 114.493164062 116.474609375 l 1
EndSplineSet
Validated: 5
EndChar

StartChar: five
Encoding: 53 53 59
Width: 720
Flags: W
HStem: -2.79395 116.946<114.959 489.398> 114.358 70.0898<0 114.959> 362.461 118.889<115.096 489.398> 481.35 199.557<0.136719 115.073> 683.054 116.946<115.096 604.357>
VStem: 0.136719 114.959<114.358 184.448 481.35 680.906> 489.398 114.959<114.152 362.461>
LayerCount: 4
Back
SplineSet
115.095703125 800 m 1xce
 604.357421875 800 l 1
 604.357421875 683.053710938 l 1
 115.095703125 683.053710938 l 1
 115.095703125 800 l 1xce
0.13671875 680.90625 m 1xde
 115.095703125 680.90625 l 1xde
 115.095703125 481.349609375 l 1
 489.3984375 481.349609375 l 1
 489.3984375 362.4609375 l 1
 115.073242188 362.4609375 l 1xee
 115.073242188 481.349609375 l 1
 0.13671875 481.349609375 l 1
 0.13671875 680.90625 l 1xde
489.3984375 362.4609375 m 1xee
 604.357421875 362.4609375 l 1
 604.357421875 113.833007812 l 1
 489.3984375 113.833007812 l 1
 489.3984375 -2.7939453125 l 1
 114.958984375 -2.7939453125 l 1
 114.958984375 114.15234375 l 1
 489.3984375 114.15234375 l 1
 489.3984375 362.4609375 l 1xee
0 184.448242188 m 1
 114.958984375 184.448242188 l 1
 114.958984375 114.358398438 l 1
 0 114.358398438 l 1
 0 184.448242188 l 1
EndSplineSet
Fore
SplineSet
115.095703125 800 m 1xce
 604.357421875 800 l 1
 604.357421875 683.053710938 l 1
 115.095703125 683.053710938 l 1
 115.095703125 800 l 1xce
0.13671875 680.90625 m 1xde
 115.095703125 680.90625 l 1xde
 115.095703125 481.349609375 l 1
 489.3984375 481.349609375 l 1
 489.3984375 362.4609375 l 1
 115.073242188 362.4609375 l 1xee
 115.073242188 481.349609375 l 1
 0.13671875 481.349609375 l 1
 0.13671875 680.90625 l 1xde
489.3984375 362.4609375 m 1xee
 604.357421875 362.4609375 l 1
 604.357421875 113.833007812 l 1
 489.3984375 113.833007812 l 1
 489.3984375 -2.7939453125 l 1
 114.958984375 -2.7939453125 l 1
 114.958984375 114.15234375 l 1
 489.3984375 114.15234375 l 1
 489.3984375 362.4609375 l 1xee
0 184.448242188 m 1
 114.958984375 184.448242188 l 1
 114.958984375 114.358398438 l 1
 0 114.358398438 l 1
 0 184.448242188 l 1
EndSplineSet
Validated: 5
EndChar

StartChar: four
Encoding: 52 52 60
Width: 826
Flags: W
HStem: 0.000976562 21G<466.939 581.668> 0.000976562 21G<466.939 581.668> 198.223 116.734<114.729 466.939 581.668 710.168> 482.034 118.582<114.729 229.457> 600.616 80.5967<229.457 344.186> 681.441 118.559<344.208 466.939>
VStem: 0 114.729<314.957 482.034> 114.729 114.729<482.034 600.616> 229.457 114.729<600.616 681.213> 466.939 114.729<0.000976562 198.223 314.957 681.441>
LayerCount: 4
Fore
SplineSet
344.208007812 800 m 1xb640
 466.940429688 800 l 1
 468.991210938 800 l 1
 581.66796875 800 l 1
 581.66796875 314.95703125 l 1
 710.16796875 314.95703125 l 1
 710.16796875 198.22265625 l 1
 581.66796875 198.22265625 l 1
 581.66796875 0.0009765625 l 1
 466.939453125 0.0009765625 l 1
 466.939453125 198.22265625 l 1
 0 198.22265625 l 1
 0 264.341796875 l 1
 0 482.034179688 l 1
 114.728515625 482.034179688 l 1
 114.728515625 314.95703125 l 1
 466.939453125 314.95703125 l 1
 466.939453125 681.44140625 l 1
 344.208007812 681.44140625 l 1
 344.208007812 800 l 1xb640
114.728515625 482.034179688 m 1
 114.728515625 600.616210938 l 1
 229.45703125 600.616210938 l 1
 229.45703125 482.034179688 l 1x3540
 114.728515625 482.034179688 l 1
229.45703125 600.616210938 m 1
 229.45703125 681.212890625 l 1
 344.185546875 681.212890625 l 1
 344.185546875 600.616210938 l 1x2cc0
 229.45703125 600.616210938 l 1
EndSplineSet
Validated: 5
EndChar

StartChar: six
Encoding: 54 54 61
Width: 739
Flags: W
HStem: 0.000976562 116.493<114.513 510.144> 364.158 118.428<114.513 510.144> 600.922 80.4463<510.257 624.771> 681.368 118.632<114.649 510.257>
VStem: 0 114.513<116.494 364.158 482.586 681.368> 510.144 114.513<116.494 364.158 600.922 681.368>
LayerCount: 4
Fore
SplineSet
114.649414062 800 m 1xdc
 510.256835938 800 l 1xdc
 510.256835938 681.368164062 l 1xec
 114.649414062 681.368164062 l 1
 114.649414062 800 l 1xdc
510.256835938 681.368164062 m 1xec
 624.770507812 681.368164062 l 1
 624.770507812 600.921875 l 1
 510.256835938 600.921875 l 1
 510.256835938 681.368164062 l 1xec
0 681.368164062 m 1xdc
 114.512695312 681.368164062 l 1
 114.512695312 482.5859375 l 1
 510.256835938 482.5859375 l 1
 510.256835938 364.158203125 l 1
 624.65625 364.158203125 l 1
 624.65625 116.494140625 l 1
 510.143554688 116.494140625 l 1
 510.143554688 364.158203125 l 1
 114.512695312 364.158203125 l 1
 114.512695312 116.494140625 l 1
 0 116.494140625 l 1
 0 681.368164062 l 1xdc
510.143554688 116.494140625 m 1
 510.143554688 0.0009765625 l 1
 114.512695312 0.0009765625 l 1
 114.512695312 116.494140625 l 1
 510.143554688 116.494140625 l 1
EndSplineSet
Validated: 5
EndChar

StartChar: seven
Encoding: 55 55 62
Width: 713
Flags: W
HStem: 0.000976562 21G<140.737 255.555> 0.000976562 21G<140.737 255.555> 317.642 166.224<255.555 370.371> 483.865 118.651<370.371 485.188> 602.517 80.499<485.211 600.027> 683.198 116.802<0 600.027>
VStem: 140.737 114.817<0.000976562 317.619> 255.555 114.816<317.642 483.865> 370.371 114.817<483.865 602.517> 485.211 114.816<602.517 683.016>
LayerCount: 4
Fore
SplineSet
0 800 m 1x0440
 600.02734375 800 l 1
 600.02734375 683.198242188 l 1
 0 683.198242188 l 1
 0 800 l 1x0440
485.2109375 683.015625 m 1x0c40
 600.02734375 683.015625 l 1
 600.02734375 602.516601562 l 1
 485.2109375 602.516601562 l 1
 485.2109375 683.015625 l 1x0c40
370.37109375 602.516601562 m 1x14c0
 485.188476562 602.516601562 l 1
 485.188476562 483.865234375 l 1x14c0
 370.37109375 483.865234375 l 1x2540
 370.37109375 602.516601562 l 1x14c0
370.37109375 483.865234375 m 1x2540
 370.37109375 317.641601562 l 1
 255.5546875 317.641601562 l 1
 255.5546875 483.865234375 l 1
 370.37109375 483.865234375 l 1x2540
140.737304688 317.619140625 m 1x8640
 255.5546875 317.619140625 l 1
 255.5546875 0.0009765625 l 1
 140.737304688 0.0009765625 l 1
 140.737304688 317.619140625 l 1x8640
EndSplineSet
Validated: 5
EndChar

StartChar: eight
Encoding: 56 56 63
Width: 750
Flags: W
HStem: 0.000976562 116.522<114.52 520.982> 116.523 247.679<0 114.52 520.982 635.502> 364.202 118.411<114.52 520.982> 482.613 198.816<0 114.52 520.982 635.502> 681.43 118.57<114.52 520.982>
VStem: 0 114.52<116.523 364.202 482.613 681.43> 114.52 406.463<0.000976562 116.523 364.202 482.613 681.43 800> 520.982 114.52<116.523 364.202 482.613 681.065>
LayerCount: 4
Fore
SplineSet
114.51953125 800 m 1x0a
 520.982421875 800 l 1x0a
 520.982421875 681.4296875 l 1x12
 114.51953125 681.4296875 l 1x14
 114.51953125 800 l 1x0a
114.51953125 681.4296875 m 1x14
 114.51953125 482.61328125 l 1x24
 0 482.61328125 l 1
 0 681.4296875 l 1
 114.51953125 681.4296875 l 1x14
114.51953125 482.61328125 m 1
 520.982421875 482.61328125 l 1x22
 520.982421875 364.202148438 l 1x42
 114.51953125 364.202148438 l 1x44
 114.51953125 482.61328125 l 1
520.982421875 482.61328125 m 1
 520.982421875 681.065429688 l 1
 635.501953125 681.065429688 l 1
 635.501953125 482.61328125 l 1x11
 520.982421875 482.61328125 l 1
520.982421875 364.202148438 m 1x42
 635.501953125 364.202148438 l 1
 635.501953125 116.5234375 l 1x41
 520.982421875 116.5234375 l 1x82
 520.982421875 364.202148438 l 1x42
520.982421875 116.5234375 m 1x82
 520.982421875 0.0009765625 l 1
 114.51953125 0.0009765625 l 1x82
 114.51953125 116.5234375 l 1x84
 520.982421875 116.5234375 l 1x82
114.51953125 116.5234375 m 1x84
 0 116.5234375 l 1
 0 364.202148438 l 1
 114.51953125 364.202148438 l 1x44
 114.51953125 116.5234375 l 1x84
EndSplineSet
Validated: 5
EndChar

StartChar: nine
Encoding: 57 57 64
Width: 728
Flags: W
HStem: 0.000976562 116.522<114.52 498.771> 117.024 77.5371<0 114.52> 364.202 118.411<114.52 498.771> 482.613 198.816<0 114.52> 681.43 118.57<114.52 498.771>
VStem: 0 114.52<117.024 194.562 482.613 681.43> 498.771 114.52<116.523 364.202 482.613 681.065>
LayerCount: 4
Fore
SplineSet
114.51953125 800 m 1xce
 498.770507812 800 l 1
 498.770507812 681.4296875 l 1xce
 114.51953125 681.4296875 l 1xd6
 114.51953125 800 l 1xce
114.51953125 681.4296875 m 1xd6
 114.51953125 482.61328125 l 1xe6
 0 482.61328125 l 1
 0 681.4296875 l 1
 114.51953125 681.4296875 l 1xd6
114.51953125 482.61328125 m 1
 498.770507812 482.61328125 l 1
 498.770507812 681.065429688 l 1
 613.290039062 681.065429688 l 1
 613.290039062 116.5234375 l 1
 498.770507812 116.5234375 l 1
 498.770507812 364.202148438 l 1
 114.51953125 364.202148438 l 1
 114.51953125 482.61328125 l 1
498.770507812 116.5234375 m 1
 498.770507812 0.0009765625 l 1
 114.51953125 0.0009765625 l 1
 114.51953125 116.5234375 l 1
 498.770507812 116.5234375 l 1
0 194.561523438 m 1
 114.51953125 194.561523438 l 1
 114.51953125 117.024414062 l 1
 0 117.024414062 l 1
 0 194.561523438 l 1
EndSplineSet
Validated: 5
EndChar

StartChar: colon
Encoding: 58 58 65
Width: 232
Flags: W
HStem: 0 117.026<0 114.523> 482.617 119.245<0 114.523>
VStem: -0 114.523<0 117.026 482.617 601.862>
LayerCount: 4
Fore
SplineSet
-0 601.862304688 m 1
 114.5234375 601.862304688 l 1
 114.5234375 482.6171875 l 1
 -0 482.6171875 l 1
 -0 601.862304688 l 1
-0 117.026367188 m 1
 114.5234375 117.026367188 l 1
 114.5234375 0 l 1
 -0 0 l 1
 -0 117.026367188 l 1
EndSplineSet
Validated: 1
EndChar

StartChar: semicolon
Encoding: 59 59 66
Width: 231
Flags: W
HStem: 0 117.025<0 57.2529 114.517 114.524> 482.617 119.245<0 114.524>
VStem: -0 114.524<0 117.025 482.617 601.862> 57.2529 57.2637<-118.317 0>
LayerCount: 4
Fore
SplineSet
-0 601.862304688 m 1xe0
 114.524414062 601.862304688 l 1
 114.524414062 482.6171875 l 1
 -0 482.6171875 l 1
 -0 601.862304688 l 1xe0
-0 117.025390625 m 1
 114.524414062 117.025390625 l 1
 114.524414062 0 l 1xe0
 114.516601562 0 l 1
 114.516601562 -118.317382812 l 1
 57.2529296875 -118.317382812 l 1
 57.2529296875 0 l 1xd0
 -0 0 l 1
 -0 117.025390625 l 1
EndSplineSet
Validated: 1
EndChar

StartChar: question
Encoding: 63 63 67
Width: 680
Flags: W
HStem: 0 117.025<186.275 300.798> 316.762 166.478<186.275 300.798> 364.824 118.415<300.798 450.157> 599.55 200.448<0 114.522> 681.435 118.563<114.522 450.157>
VStem: -0 114.522<599.55 681.435> 186.275 114.522<0 117.025 316.762 364.824> 450.157 114.522<483.239 681.435>
LayerCount: 4
Fore
SplineSet
-0 799.998046875 m 1x97
 564.676757812 799.998046875 l 1
 564.676757812 754.083984375 l 1
 564.6796875 754.083984375 l 1
 564.6796875 364.82421875 l 1
 481.678710938 364.82421875 l 1
 300.797851562 364.82421875 l 1xaf
 300.797851562 316.76171875 l 1
 186.275390625 316.76171875 l 1xc7
 186.275390625 364.82421875 l 1xa7
 186.275390625 483.239257812 l 1xc7
 450.157226562 483.239257812 l 1
 450.157226562 681.434570312 l 1
 114.522460938 681.434570312 l 1xaf
 114.522460938 599.549804688 l 1
 -0 599.549804688 l 1x97
 -0 681.434570312 l 1x8f
 -0 723.677734375 l 1
 -0 799.998046875 l 1x97
186.275390625 117.025390625 m 1
 300.797851562 117.025390625 l 1
 300.797851562 0 l 1
 186.275390625 0 l 1
 186.275390625 117.025390625 l 1
EndSplineSet
Validated: 1
EndChar

StartChar: exclam
Encoding: 33 33 68
Width: 230
Flags: W
HStem: 0.000976562 117.025<0 114.523> 780 20G<0 114.523>
VStem: -0 114.523<0.000976562 117.026 316.758 800>
LayerCount: 4
Fore
SplineSet
-0 0.0009765625 m 1
 -0 117.026367188 l 1
 114.5234375 117.026367188 l 1
 114.5234375 0.0009765625 l 1
 -0 0.0009765625 l 1
-0 316.7578125 m 1
 -0 800 l 1
 114.5234375 800 l 1
 114.5234375 316.7578125 l 1
 -0 316.7578125 l 1
EndSplineSet
Validated: 1
EndChar

StartChar: period
Encoding: 46 46 69
Width: 230
Flags: W
HStem: 0.00292969 117.025<0 114.522>
VStem: -0 114.522<0.00292969 117.028>
LayerCount: 4
Fore
SplineSet
-0 0.0029296875 m 1
 -0 117.028320312 l 1
 114.522460938 117.028320312 l 1
 114.522460938 0.0029296875 l 1
 -0 0.0029296875 l 1
EndSplineSet
Validated: 1
EndChar

StartChar: comma
Encoding: 44 44 70
Width: 230
Flags: W
HStem: 2.33691 116.686<0 57.085 114.182 114.19>
VStem: -0 114.19<2.33691 119.022> 57.085 57.0967<-115.641 2.33691>
LayerCount: 4
Fore
SplineSet
-0 119.022460938 m 1xc0
 114.190429688 119.022460938 l 1
 114.190429688 2.3369140625 l 1xc0
 114.181640625 2.3369140625 l 1
 114.181640625 -115.640625 l 1
 57.0849609375 -115.640625 l 1
 57.0849609375 2.3369140625 l 1xa0
 -0 2.3369140625 l 1
 -0 119.022460938 l 1xc0
EndSplineSet
Validated: 1
EndChar

StartChar: underscore
Encoding: 95 95 71
Width: 549
Flags: W
HStem: -117.976 117.976<0 431.335>
LayerCount: 4
Fore
SplineSet
0 -117.975585938 m 1
 0 0 l 1
 431.334960938 0 l 1
 431.334960938 -117.975585938 l 1
 0 -117.975585938 l 1
EndSplineSet
Validated: 1
EndChar

StartChar: slash
Encoding: 47 47 72
Width: 576
Flags: W
HStem: 0.000976562 198.557<0.00195312 114.615> 198.558 118.447<114.618 229.23> 601.443 198.557<343.848 458.461>
VStem: 0.00195312 114.613<0.000976562 198.558> 114.618 114.614<198.558 317.005> 229.23 114.614<317.005 602.834> 343.848 114.613<601.443 800>
LayerCount: 4
Fore
SplineSet
0.001953125 0.0009765625 m 1xb2
 0.001953125 198.557617188 l 1
 114.615234375 198.557617188 l 1
 114.615234375 0.0009765625 l 1
 0.001953125 0.0009765625 l 1xb2
343.84765625 601.443359375 m 1
 343.84765625 800 l 1
 458.4609375 800 l 1
 458.4609375 601.443359375 l 1
 343.84765625 601.443359375 l 1
229.23046875 317.00390625 m 1x36
 229.23046875 602.833984375 l 1
 343.844726562 602.833984375 l 1
 343.844726562 317.00390625 l 1
 229.23046875 317.00390625 l 1x36
114.618164062 198.557617188 m 1x7a
 114.618164062 317.004882812 l 1
 229.232421875 317.004882812 l 1
 229.232421875 198.557617188 l 1
 114.618164062 198.557617188 l 1x7a
EndSplineSet
Validated: 5
EndChar

StartChar: parenleft
Encoding: 40 40 73
Width: 362
Flags: W
HStem: 0.000976562 115.705<114.748 245.137> 681.205 118.795<114.747 245.137>
VStem: 0.00292969 114.745<115.706 681.205> 114.747 130.39<0.000976562 115.706 681.205 800>
LayerCount: 4
Fore
SplineSet
0.0029296875 115.706054688 m 1xe0
 0.0029296875 681.205078125 l 1
 114.748046875 681.205078125 l 1
 114.748046875 115.706054688 l 1
 0.0029296875 115.706054688 l 1xe0
114.747070312 681.205078125 m 1xd0
 114.747070312 800 l 1
 245.13671875 800 l 1
 245.13671875 681.205078125 l 1
 114.747070312 681.205078125 l 1xd0
114.747070312 0.0009765625 m 1
 114.747070312 115.706054688 l 1
 245.13671875 115.706054688 l 1
 245.13671875 0.0009765625 l 1
 114.747070312 0.0009765625 l 1
EndSplineSet
Validated: 5
EndChar

StartChar: parenright
Encoding: 41 41 74
Width: 363
Flags: W
HStem: 0.00195312 115.705<-0.00292969 130.386> 681.205 118.796<-0.00292969 130.386>
VStem: -0.00292969 130.389<0.00195312 115.707 681.205 800.001> 130.388 114.745<115.707 681.205>
LayerCount: 4
Fore
SplineSet
130.387695312 115.70703125 m 1
 130.387695312 681.205078125 l 1
 245.1328125 681.205078125 l 1
 245.1328125 115.70703125 l 1
 130.387695312 115.70703125 l 1
-0.0029296875 681.205078125 m 1
 -0.0029296875 800.000976562 l 1
 130.385742188 800.000976562 l 1
 130.385742188 681.205078125 l 1
 -0.0029296875 681.205078125 l 1
-0.0029296875 0.001953125 m 1
 -0.0029296875 115.70703125 l 1
 130.385742188 115.70703125 l 1
 130.385742188 0.001953125 l 1
 -0.0029296875 0.001953125 l 1
EndSplineSet
Validated: 1
EndChar

StartChar: numbersign
Encoding: 35 35 75
Width: 912
Flags: W
HStem: 0.00683594 21G<169.987 284.511 535.578 650.102> 0.00683594 21G<169.987 284.511 535.578 650.102> 198.409 118.354<-0.000976562 795.215> 482.619 118.354<-0.000976562 795.215> 780.004 20G<169.987 284.511 535.578 650.102>
VStem: 169.987 114.523<0.00683594 800.004> 535.578 114.523<0.00683594 800.004>
LayerCount: 4
Fore
SplineSet
169.987304688 0.0068359375 m 1xbe
 169.987304688 800.00390625 l 1
 284.510742188 800.00390625 l 1
 284.510742188 0.0068359375 l 1
 169.987304688 0.0068359375 l 1xbe
535.578125 0.0068359375 m 1
 535.578125 800.00390625 l 1
 650.1015625 800.00390625 l 1
 650.1015625 0.0068359375 l 1
 535.578125 0.0068359375 l 1
-0.0009765625 198.409179688 m 1
 -0.0009765625 316.762695312 l 1
 795.21484375 316.762695312 l 1
 795.21484375 198.409179688 l 1
 -0.0009765625 198.409179688 l 1
-0.0009765625 482.619140625 m 1
 -0.0009765625 600.97265625 l 1
 795.21484375 600.97265625 l 1
 795.21484375 482.619140625 l 1
 -0.0009765625 482.619140625 l 1
EndSplineSet
Validated: 5
EndChar

StartChar: percent
Encoding: 37 37 76
Width: 894
Flags: W
HStem: 0.000976562 117.12<581.257 741.866> 117.84 80.5205<88.2822 202.935 468.42 580.004 741.873 853.456> 199.046 117.118<202.941 317.595 581.257 741.866> 316.843 167.001<317.602 432.247> 483.837 117.126<112.837 273.453 432.254 546.899> 600.957 81.917<0 111.589 273.453 385.036 546.906 661.559> 682.881 117.119<112.837 273.453 661.565 776.218>
VStem: -0 111.589<600.957 682.874> 88.2822 114.652<117.84 198.36> 112.837 160.616<483.837 600.957 682.881 800> 202.941 114.653<198.354 316.843> 273.453 111.583<600.963 682.874> 317.602 114.652<316.843 483.837> 432.247 114.652<483.844 600.963> 468.42 111.584<117.121 199.038> 546.906 114.652<600.957 682.874> 581.257 160.609<0.000976562 117.121 199.046 316.164> 661.565 114.652<682.881 800> 741.873 111.583<117.121 199.038>
LayerCount: 4
Fore
SplineSet
112.836914062 800 m 1xe240
 273.453125 800 l 1
 273.453125 682.880859375 l 1
 112.836914062 682.880859375 l 1
 112.836914062 800 l 1xe240
661.565429688 800 m 1xe20040
 776.217773438 800 l 1
 776.217773438 682.880859375 l 1
 661.565429688 682.880859375 l 1
 661.565429688 800 l 1xe20040
-0 682.874023438 m 1xe7
 111.588867188 682.874023438 l 1
 111.588867188 600.95703125 l 1
 -0 600.95703125 l 1
 -0 682.874023438 l 1xe7
273.453125 682.874023438 m 1xe610
 385.036132812 682.874023438 l 1
 385.036132812 600.95703125 l 1xe610
 273.453125 600.95703125 l 1xe640
 273.453125 483.836914062 l 1
 112.836914062 483.836914062 l 1
 112.836914062 600.962890625 l 1xea40
 273.453125 600.962890625 l 1xea10
 273.453125 682.874023438 l 1xe610
546.90625 682.874023438 m 1xe601
 661.55859375 682.874023438 l 1
 661.55859375 600.95703125 l 1
 546.90625 600.95703125 l 1
 546.90625 682.874023438 l 1xe601
432.247070312 600.962890625 m 1xea04
 546.899414062 600.962890625 l 1
 546.899414062 483.836914062 l 1xea04
 432.25390625 483.836914062 l 1xea08
 432.25390625 316.842773438 l 1
 317.6015625 316.842773438 l 1
 317.6015625 483.84375 l 1xf208
 432.247070312 483.84375 l 1xf204
 432.247070312 600.962890625 l 1xea04
202.94140625 316.842773438 m 1xf220
 317.594726562 316.842773438 l 1
 317.594726562 198.353515625 l 1
 202.94140625 198.353515625 l 1
 202.94140625 316.842773438 l 1xf220
581.256835938 316.1640625 m 1xe20080
 741.866210938 316.1640625 l 1
 741.866210938 199.045898438 l 1
 581.256835938 199.045898438 l 1
 581.256835938 316.1640625 l 1xe20080
468.419921875 199.038085938 m 1xe202
 580.00390625 199.038085938 l 1
 580.00390625 117.12109375 l 1
 468.419921875 117.12109375 l 1
 468.419921875 199.038085938 l 1xe202
741.873046875 199.038085938 m 1xe20020
 853.456054688 199.038085938 l 1
 853.456054688 117.12109375 l 1
 741.873046875 117.12109375 l 1
 741.873046875 199.038085938 l 1xe20020
88.2822265625 198.360351562 m 1xe280
 202.934570312 198.360351562 l 1
 202.934570312 117.83984375 l 1
 88.2822265625 117.83984375 l 1
 88.2822265625 198.360351562 l 1xe280
581.256835938 117.12109375 m 1xe20080
 741.866210938 117.12109375 l 1
 741.866210938 0.0009765625 l 1
 581.256835938 0.0009765625 l 1
 581.256835938 117.12109375 l 1xe20080
EndSplineSet
Validated: 1
EndChar

StartChar: at
Encoding: 64 64 77
Width: 951
Flags: W
HStem: 0.00195312 102.938<99.6348 732.921> 204.765 70.7979<308.761 511.535 611.169 732.921> 522.837 101.092<308.761 511.535> 696.877 103.122<99.6348 732.915>
VStem: 0.000976562 99.6396<102.945 696.056> 209.115 99.6455<275.562 522.837> 511.535 99.6338<275.562 522.837> 732.928 99.6387<275.562 696.056>
LayerCount: 4
Fore
SplineSet
99.634765625 799.999023438 m 1
 732.915039062 799.999023438 l 1
 732.915039062 696.876953125 l 1
 99.634765625 696.876953125 l 1
 99.634765625 799.999023438 l 1
0.0009765625 696.055664062 m 1
 99.640625 696.055664062 l 1
 99.640625 102.9453125 l 1
 0.0009765625 102.9453125 l 1
 0.0009765625 696.055664062 l 1
732.927734375 696.055664062 m 1
 832.56640625 696.055664062 l 1
 832.56640625 275.5625 l 1
 732.927734375 275.5625 l 1
 732.927734375 696.055664062 l 1
308.754882812 623.928710938 m 1
 511.53515625 623.928710938 l 1
 561.345703125 623.928710938 l 1
 611.168945312 623.928710938 l 1
 611.168945312 275.5625 l 1
 732.920898438 275.5625 l 1
 732.920898438 204.764648438 l 1
 611.168945312 204.764648438 l 1
 511.53515625 204.764648438 l 1
 308.754882812 204.764648438 l 1
 308.754882812 275.5625 l 1
 209.115234375 275.5625 l 1
 209.115234375 522.842773438 l 1
 308.754882812 522.842773438 l 1
 308.754882812 623.928710938 l 1
308.760742188 522.836914062 m 1
 308.760742188 275.5625 l 1
 511.53515625 275.5625 l 1
 511.53515625 522.836914062 l 1
 308.760742188 522.836914062 l 1
99.634765625 102.939453125 m 1
 732.920898438 102.939453125 l 1
 732.920898438 0.001953125 l 1
 99.634765625 0.001953125 l 1
 99.634765625 102.939453125 l 1
EndSplineSet
Validated: 1
EndChar

StartChar: less
Encoding: 60 60 78
Width: 609
Flags: W
HStem: 119.019 81.1367<361.116 490.874> 200.163 118.07<116.184 361.112> 318.235 165.314<0 116.183> 483.55 119.411<116.184 361.112> 602.961 81.1367<361.116 490.874>
VStem: 0 116.183<318.235 483.55> 116.184 244.929<200.163 318.233 483.55 602.961> 361.116 129.758<119.019 200.155 602.961 684.098>
LayerCount: 4
Fore
SplineSet
0 318.235351562 m 1xe7
 0 483.549804688 l 1
 116.182617188 483.549804688 l 1
 116.182617188 318.235351562 l 1
 0 318.235351562 l 1xe7
116.18359375 200.163085938 m 1
 116.18359375 318.233398438 l 1
 361.112304688 318.233398438 l 1
 361.112304688 200.163085938 l 1
 116.18359375 200.163085938 l 1
116.18359375 602.9609375 m 1xd7
 361.112304688 602.9609375 l 1
 361.112304688 483.549804688 l 1
 116.18359375 483.549804688 l 1
 116.18359375 602.9609375 l 1xd7
361.116210938 119.018554688 m 1
 361.116210938 200.155273438 l 1
 490.874023438 200.155273438 l 1
 490.874023438 119.018554688 l 1
 361.116210938 119.018554688 l 1
361.116210938 602.9609375 m 1xcf
 361.116210938 684.09765625 l 1
 490.874023438 684.09765625 l 1
 490.874023438 602.9609375 l 1
 361.116210938 602.9609375 l 1xcf
EndSplineSet
Validated: 1
EndChar

StartChar: bracketleft
Encoding: 91 91 79
Width: 361
Flags: W
HStem: -0.00488281 115.482<114.527 244.666> 681.429 118.566<114.527 244.666>
VStem: 0.00195312 244.664<-0.00488281 115.478 681.429 799.995> 0.00195312 114.525<-0.0107422 -0.00488281 115.478 681.429>
LayerCount: 4
Fore
SplineSet
0.001953125 799.995117188 m 1xe0
 114.52734375 799.995117188 l 1xd0
 244.666015625 799.995117188 l 1
 244.666015625 681.428710938 l 1xe0
 114.52734375 681.428710938 l 1
 114.52734375 115.477539062 l 1xd0
 244.666015625 115.477539062 l 1
 244.666015625 -0.0048828125 l 1xe0
 114.52734375 -0.0048828125 l 1
 114.52734375 -0.0107421875 l 1
 0.001953125 -0.0107421875 l 1xd0
 0.001953125 -0.0048828125 l 1
 0.001953125 115.477539062 l 1
 0.001953125 681.428710938 l 1
 0.001953125 799.995117188 l 1xe0
EndSplineSet
Validated: 1
EndChar

StartChar: braceleft
Encoding: 123 123 80
Width: 449
InSpiro: 1
Flags: W
HStem: -0.000976562 115.482<202.335 332.473> 364.818 118.417<0.00195312 87.8037> 681.431 118.567<202.335 332.473>
VStem: 0.00195312 87.8018<364.818 483.235> 87.8105 244.662<-0.000976562 115.481 681.431 799.998> 87.8105 114.524<115.481 364.956 483.235 681.431>
LayerCount: 4
Fore
SplineSet
87.810546875 799.998046875 m 1xf8
 332.47265625 799.998046875 l 1
 332.47265625 681.430664062 l 1xf8
 202.334960938 681.430664062 l 1
 202.334960938 483.235351562 l 1
 87.810546875 483.235351562 l 1xf4
 87.810546875 681.430664062 l 1
 87.810546875 799.998046875 l 1xf8
  Spiro
    87.8105 799.998 v
    332.473 799.998 v
    332.473 681.431 v
    202.335 681.431 v
    202.335 483.235 v
    87.8105 483.235 v
    87.8105 681.431 v
    0 0 z
  EndSpiro
0.001953125 483.235351562 m 1
 87.8037109375 483.235351562 l 1
 87.8037109375 364.818359375 l 1
 0.001953125 364.818359375 l 1
 0.001953125 483.235351562 l 1
  Spiro
    0.00195312 483.235 v
    87.8037 483.235 v
    87.8037 364.818 v
    0.00195312 364.818 v
    0 0 z
  EndSpiro
87.810546875 364.956054688 m 1xf4
 202.334960938 364.956054688 l 1
 202.334960938 115.481445312 l 1xf4
 332.47265625 115.481445312 l 1
 332.47265625 -0.0009765625 l 1
 87.810546875 -0.0009765625 l 1
 87.810546875 48.1923828125 l 1xf8
 87.810546875 364.956054688 l 1xf4
  Spiro
    87.8105 364.956 v
    202.335 364.956 v
    202.335 115.481 v
    332.473 115.481 v
    332.473 -0.000976562 v
    87.8105 -0.000976562 v
    87.8105 48.1924 v
    0 0 z
  EndSpiro
EndSplineSet
Validated: 1
EndChar

StartChar: braceright
Encoding: 125 125 81
Width: 450
Flags: W
HStem: -0.00976562 115.448<0 130.104> 364.463 118.382<244.599 332.376> 681.233 118.534<0 130.104>
VStem: -0 244.594<-0.00976562 115.438 681.233 799.768> 130.104 114.49<115.438 364.715 482.839 681.233 799.768 800.018> 244.599 87.7773<364.463 482.845>
LayerCount: 4
Fore
SplineSet
130.103515625 800.017578125 m 1xec
 244.59375 800.017578125 l 1
 244.59375 482.838867188 l 1
 130.103515625 482.838867188 l 1
 130.103515625 681.233398438 l 1xec
 -0 681.233398438 l 1
 -0 799.767578125 l 1xf4
 130.103515625 799.767578125 l 1
 130.103515625 800.017578125 l 1xec
244.598632812 482.844726562 m 1
 332.375976562 482.844726562 l 1
 332.375976562 364.462890625 l 1
 244.598632812 364.462890625 l 1
 244.598632812 482.844726562 l 1
130.103515625 364.71484375 m 1
 244.59375 364.71484375 l 1xec
 244.59375 -0.001953125 l 1
 244.592773438 -0.001953125 l 1
 244.592773438 -0.009765625 l 1
 -0 -0.009765625 l 1
 -0 115.438476562 l 1xf4
 130.103515625 115.438476562 l 1
 130.103515625 364.71484375 l 1
EndSplineSet
Validated: 1
EndChar

StartChar: bar
Encoding: 124 124 82
Width: 240
Flags: W
HStem: 780 20G<0 124.618>
VStem: -0 124.618<-200 800>
LayerCount: 4
Fore
SplineSet
-0 -200 m 1
 -0 800 l 1
 124.618164062 800 l 1
 124.618164062 -200 l 1
 -0 -200 l 1
EndSplineSet
Validated: 1
EndChar

StartChar: asciitilde
Encoding: 126 126 83
Width: 685
Flags: W
HStem: 317.525 118.182<342.512 456.868> 435.707 47.376<228.724 342.518> 483.083 118.181<114.361 228.718>
VStem: -0 114.357<317.519 483.076> 114.361 114.356<483.083 601.264> 228.724 113.794<435.707 483.083> 342.512 114.356<317.525 435.707> 456.686 114.356<435.707 601.264>
LayerCount: 4
Fore
SplineSet
-0 317.518554688 m 1x18
 -0 483.076171875 l 1
 114.357421875 483.076171875 l 1
 114.357421875 317.518554688 l 1
 -0 317.518554688 l 1x18
114.361328125 483.083007812 m 1x38
 114.361328125 601.263671875 l 1
 228.717773438 601.263671875 l 1
 228.717773438 483.083007812 l 1
 114.361328125 483.083007812 l 1x38
342.51171875 317.525390625 m 1x9a
 342.51171875 435.70703125 l 1
 456.868164062 435.70703125 l 1
 456.868164062 317.525390625 l 1
 342.51171875 317.525390625 l 1x9a
456.685546875 435.70703125 m 1x99
 456.685546875 601.263671875 l 1
 571.041992188 601.263671875 l 1xb9
 571.041992188 435.70703125 l 1x59
 456.685546875 435.70703125 l 1x99
228.723632812 483.083007812 m 1x5c
 342.517578125 483.083007812 l 1x5c
 342.517578125 435.70703125 l 1x9c
 228.723632812 435.70703125 l 1
 228.723632812 483.083007812 l 1x5c
EndSplineSet
Validated: 5
EndChar

StartChar: bracketright
Encoding: 93 93 84
Width: 362
Flags: W
HStem: 0.00195312 115.5<0 130.153> 681.453 118.547<0 130.153>
VStem: 0 244.675<0.0205078 115.502 681.453 800> 130.153 114.521<115.502 681.453>
LayerCount: 4
Fore
SplineSet
0 800 m 1xe0
 130.153320312 800 l 1xd0
 244.674804688 800 l 1
 244.674804688 681.453125 l 1
 244.674804688 115.501953125 l 1
 244.674804688 0.0205078125 l 1xe0
 244.674804688 0.001953125 l 1xd0
 0 0.001953125 l 1
 0 115.501953125 l 1xe0
 130.153320312 115.501953125 l 1
 130.153320312 681.453125 l 1xd0
 0 681.453125 l 1
 0 800 l 1xe0
EndSplineSet
Validated: 1
EndChar

StartChar: backslash
Encoding: 92 92 85
Width: 574
Flags: W
HStem: 0.00390625 198.557<343.847 458.46> 482.998 119.838<114.612 229.226> 601.447 198.557<-0.00195312 114.612>
VStem: -0.00195312 114.614<601.447 800.004> 114.612 114.613<482.998 602.836> 229.232 114.614<198.562 483.003> 343.847 114.613<0.00390625 198.561>
LayerCount: 4
Fore
SplineSet
343.846679688 0.00390625 m 1x82
 343.846679688 198.560546875 l 1
 458.459960938 198.560546875 l 1
 458.459960938 0.00390625 l 1
 343.846679688 0.00390625 l 1x82
-0.001953125 601.447265625 m 1xb0
 -0.001953125 800.00390625 l 1
 114.612304688 800.00390625 l 1
 114.612304688 601.447265625 l 1
 -0.001953125 601.447265625 l 1xb0
114.612304688 482.998046875 m 1xc8
 114.612304688 602.8359375 l 1xd0
 229.225585938 602.8359375 l 1
 229.225585938 482.998046875 l 1
 114.612304688 482.998046875 l 1xc8
229.232421875 198.5625 m 1x84
 229.232421875 483.002929688 l 1
 343.846679688 483.002929688 l 1
 343.846679688 198.5625 l 1
 229.232421875 198.5625 l 1x84
EndSplineSet
Validated: 5
EndChar

StartChar: greater
Encoding: 62 62 86
Width: 606
Flags: W
HStem: 119.013 81.1377<0 129.759> 200.147 118.009<129.763 374.692> 318.156 165.379<374.692 490.876> 483.785 118.071<129.763 374.692> 601.863 79.9141<0 129.759>
VStem: 0 129.759<119.013 200.15 601.863 681.777> 129.763 244.93<200.15 318.156 483.785 601.856> 374.692 116.184<318.156 483.535>
LayerCount: 4
Fore
SplineSet
490.875976562 483.53515625 m 1x3d
 490.875976562 318.15625 l 1x3d
 374.692382812 318.15625 l 1x5e
 374.692382812 483.53515625 l 1
 490.875976562 483.53515625 l 1x3d
374.692382812 601.856445312 m 1x1e
 374.692382812 483.78515625 l 1
 129.762695312 483.78515625 l 1
 129.762695312 601.856445312 l 1
 374.692382812 601.856445312 l 1x1e
374.692382812 200.147460938 m 1x5d
 129.762695312 200.147460938 l 1
 129.762695312 318.15625 l 1
 374.692382812 318.15625 l 1x5e
 374.692382812 200.147460938 l 1x5d
129.758789062 681.77734375 m 1
 129.758789062 601.86328125 l 1
 0 601.86328125 l 1
 0 681.77734375 l 1
 129.758789062 681.77734375 l 1
129.758789062 200.150390625 m 1x9c
 129.758789062 119.012695312 l 1
 0 119.012695312 l 1
 0 200.150390625 l 1
 129.758789062 200.150390625 l 1x9c
EndSplineSet
Validated: 5
EndChar

StartChar: quotesingle
Encoding: 39 39 87
Width: 229
Flags: W
HStem: 601.044 198.974<0.000976562 114.103>
VStem: 0.000976562 114.102<601.044 800.018>
LayerCount: 4
Fore
SplineSet
0.0009765625 601.043945312 m 1
 0.0009765625 800.017578125 l 1
 114.102539062 800.017578125 l 1
 114.102539062 601.043945312 l 1
 0.0009765625 601.043945312 l 1
EndSplineSet
Validated: 1
EndChar

StartChar: plus
Encoding: 43 43 88
Width: 772
Flags: W
HStem: 0.0908203 21G<260.183 394.319> 0.0908203 21G<260.183 394.319> 260.214 140.733<0.000976562 260.183 394.319 654.483>
VStem: 260.183 134.137<0.0908203 260.214 400.947 661.171>
LayerCount: 4
Fore
SplineSet
260.182617188 661.170898438 m 1xb0
 394.319335938 661.170898438 l 1
 394.319335938 400.947265625 l 1
 654.483398438 400.947265625 l 1
 654.483398438 260.213867188 l 1
 394.319335938 260.213867188 l 1
 394.319335938 0.0908203125 l 1
 260.182617188 0.0908203125 l 1
 260.182617188 260.213867188 l 1
 0.0009765625 260.213867188 l 1
 0.0009765625 400.947265625 l 1
 260.182617188 400.947265625 l 1
 260.182617188 661.170898438 l 1xb0
EndSplineSet
Validated: 1
EndChar

StartChar: equal
Encoding: 61 61 89
Width: 777
Flags: W
HStem: -0.0439453 159.451<0.000976562 658.142> 378.878 159.451<0.000976562 658.142>
LayerCount: 4
Fore
SplineSet
0.0009765625 538.329101562 m 1
 658.141601562 538.329101562 l 1
 658.141601562 378.877929688 l 1
 0.0009765625 378.877929688 l 1
 0.0009765625 538.329101562 l 1
0.0009765625 159.407226562 m 1
 658.141601562 159.407226562 l 1
 658.141601562 -0.0439453125 l 1
 0.0009765625 -0.0439453125 l 1
 0.0009765625 159.407226562 l 1
EndSplineSet
Validated: 1
EndChar

StartChar: grave
Encoding: 96 96 90
Width: 344
Flags: W
HStem: 601.262 80.0693<113.907 227.872> 681.36 118.663<0.00195312 113.967>
VStem: 0.00195312 113.965<681.36 800.023> 113.907 113.965<601.262 681.331>
LayerCount: 4
Fore
SplineSet
0.001953125 681.360351562 m 1xe0
 0.001953125 800.0234375 l 1
 113.966796875 800.0234375 l 1
 113.966796875 681.360351562 l 1
 0.001953125 681.360351562 l 1xe0
113.907226562 601.26171875 m 1xd0
 113.907226562 681.331054688 l 1
 227.872070312 681.331054688 l 1
 227.872070312 601.26171875 l 1
 113.907226562 601.26171875 l 1xd0
EndSplineSet
Validated: 1
EndChar

StartChar: asciicircum
Encoding: 94 94 91
Width: 615
Flags: W
HStem: 318.251 165.379<-0.00195312 114.188 371.835 486.024> 482.617 118.955<114.278 198.696 287.384 371.802> 601.557 21G<198.723 287.498> 780.006 20G<198.723 287.498>
VStem: -0.00195312 114.189<318.251 483.63> 114.278 84.418<482.617 601.572> 198.723 88.7754<601.572 800.006> 287.384 84.418<482.617 601.557> 371.835 114.189<317.269 482.647>
LayerCount: 4
Fore
SplineSet
-0.001953125 318.250976562 m 1x9c80
 -0.001953125 483.629882812 l 1
 114.1875 483.629882812 l 1
 114.1875 318.250976562 l 1
 -0.001953125 318.250976562 l 1x9c80
371.834960938 317.268554688 m 1
 371.834960938 482.647460938 l 1
 486.024414062 482.647460938 l 1
 486.024414062 317.268554688 l 1
 371.834960938 317.268554688 l 1
114.278320312 482.6171875 m 1x5c80
 114.278320312 601.572265625 l 1
 198.696289062 601.572265625 l 1
 198.696289062 482.6171875 l 1
 114.278320312 482.6171875 l 1x5c80
287.383789062 482.6171875 m 1x5d80
 287.383789062 601.572265625 l 1
 371.801757812 601.572265625 l 1
 371.801757812 482.6171875 l 1
 287.383789062 482.6171875 l 1x5d80
198.72265625 601.556640625 m 1x3e80
 198.72265625 800.005859375 l 1
 287.498046875 800.005859375 l 1
 287.498046875 601.556640625 l 1
 198.72265625 601.556640625 l 1x3e80
EndSplineSet
Validated: 5
EndChar

StartChar: dollar
Encoding: 36 36 92
Width: 609
Flags: W
HStem: -0.0283203 118.002<0.000976562 108.506 236.468 363.806> 117.943 79.8789<363.848 478.188> 197.959 118.103<114.43 363.895> 316.038 165.597<0.000976562 114.341> 481.635 118.098<114.43 204.472 332.44 478.234>
VStem: 0.000976562 114.34<316.038 481.635> 108.506 127.962<-113.909 -0.0283203> 204.472 127.969<599.732 739.936> 363.848 114.34<117.943 197.822>
LayerCount: 4
Fore
SplineSet
204.471679688 739.935546875 m 1x0980
 332.440429688 739.935546875 l 1
 332.440429688 599.732421875 l 1
 478.234375 599.732421875 l 1
 478.234375 481.634765625 l 1
 114.4296875 481.634765625 l 1
 114.4296875 599.732421875 l 1
 204.471679688 599.732421875 l 1
 204.471679688 739.935546875 l 1x0980
0.0009765625 481.634765625 m 1x1480
 114.340820312 481.634765625 l 1
 114.340820312 316.038085938 l 1
 0.0009765625 316.038085938 l 1
 0.0009765625 481.634765625 l 1x1480
114.4296875 316.061523438 m 1x2080
 363.89453125 316.061523438 l 1
 363.89453125 197.958984375 l 1
 114.4296875 197.958984375 l 1
 114.4296875 316.061523438 l 1x2080
363.84765625 197.822265625 m 1x4080
 478.1875 197.822265625 l 1
 478.1875 117.943359375 l 1
 363.84765625 117.943359375 l 1
 363.84765625 197.822265625 l 1x4080
0.0009765625 117.973632812 m 1x8480
 363.805664062 117.973632812 l 1
 363.805664062 -0.0283203125 l 1
 236.467773438 -0.0283203125 l 1
 236.467773438 -113.909179688 l 1
 108.505859375 -113.909179688 l 1
 108.505859375 -0.0283203125 l 1x8280
 0.0009765625 -0.0283203125 l 1
 0.0009765625 117.973632812 l 1x8480
EndSplineSet
Validated: 1
EndChar

StartChar: ampersand
Encoding: 38 38 93
Width: 817
Flags: W
HStem: 0.579102 116.447<114.603 461.171> 364.705 118.3<114.603 463.017 577.618 687.594> 580.375 20G<463.017 577.618> 681.706 118.293<114.603 413.11>
VStem: 0.000976562 114.602<117.026 364.705 483.005 681.706> 463.017 114.602<117.026 364.705 483.005 600.375>
LayerCount: 4
Fore
SplineSet
114.602539062 799.999023438 m 1
 413.110351562 799.999023438 l 1
 413.110351562 681.706054688 l 1
 114.602539062 681.706054688 l 1
 114.602539062 483.004882812 l 1
 463.016601562 483.004882812 l 1
 463.016601562 600.375 l 1
 577.618164062 600.375 l 1
 577.618164062 483.004882812 l 1
 687.59375 483.004882812 l 1
 687.59375 364.705078125 l 1
 577.618164062 364.705078125 l 1
 577.618164062 117.026367188 l 1
 463.016601562 117.026367188 l 1
 463.016601562 364.705078125 l 1
 114.602539062 364.705078125 l 1
 114.602539062 117.026367188 l 1
 0.0009765625 117.026367188 l 1
 0.0009765625 364.705078125 l 1
 114.602539062 364.705078125 l 1
 114.602539062 483.004882812 l 1
 0.0009765625 483.004882812 l 1
 0.0009765625 681.706054688 l 1
 114.602539062 681.706054688 l 1
 114.602539062 799.999023438 l 1
114.602539062 117.026367188 m 1
 461.170898438 117.026367188 l 1
 461.170898438 0.5791015625 l 1
 114.602539062 0.5791015625 l 1
 114.602539062 117.026367188 l 1
EndSplineSet
Validated: 5
EndChar

StartChar: quotedbl
Encoding: 34 34 94
Width: 443
Flags: W
HStem: 600.461 199.539<0 114.427 198.64 313.066>
VStem: -0 114.427<600.461 800> 198.64 114.427<600.461 800>
LayerCount: 4
Fore
SplineSet
-0 600.4609375 m 1
 -0 800 l 1
 114.426757812 800 l 1
 114.426757812 600.4609375 l 1
 -0 600.4609375 l 1
198.639648438 600.4609375 m 1
 198.639648438 800 l 1
 313.06640625 800 l 1
 313.06640625 600.4609375 l 1
 198.639648438 600.4609375 l 1
EndSplineSet
Validated: 1
EndChar

StartChar: asterisk
Encoding: 42 42 95
Width: 469
Flags: W
HStem: 601.321 80.3555<0.000976562 129.553 209.913 339.43> 780.071 20G<129.553 209.913>
VStem: 129.553 80.3604<483.105 601.321 681.677 800.071>
LayerCount: 4
Fore
SplineSet
129.552734375 800.071289062 m 1
 209.913085938 800.071289062 l 1
 209.913085938 681.676757812 l 1
 339.4296875 681.676757812 l 1
 339.4296875 601.321289062 l 1
 209.913085938 601.321289062 l 1
 209.913085938 483.10546875 l 1
 129.552734375 483.10546875 l 1
 129.552734375 601.321289062 l 1
 0.0009765625 601.321289062 l 1
 0.0009765625 681.676757812 l 1
 129.552734375 681.676757812 l 1
 129.552734375 800.071289062 l 1
EndSplineSet
Validated: 1
EndChar

StartChar: Euro
Encoding: 128 8364 96
Width: 822
Flags: W
HStem: 0.00195312 116.482<178.638 578.262> 116.997 81.3545<578.268 692.768> 279.046 80.0029<0.000976562 64.1484 178.649 508.725> 442.506 80.0029<0.000976562 64.1484 178.649 508.725> 600.834 80.4434<578.268 692.768> 683.517 116.482<178.638 578.262>
VStem: 64.1484 114.501<116.997 279.046 359.049 442.506 522.509 681.266> 578.268 114.5<116.997 198.352 600.834 681.277>
LayerCount: 4
Fore
SplineSet
178.637695312 799.999023438 m 1
 578.26171875 799.999023438 l 1
 578.26171875 683.516601562 l 1
 178.637695312 683.516601562 l 1
 178.637695312 799.999023438 l 1
64.1484375 681.27734375 m 1
 178.649414062 681.265625 l 1
 178.649414062 581.870117188 l 1
 178.649414062 522.508789062 l 1
 508.724609375 522.508789062 l 1
 508.724609375 442.505859375 l 1
 178.649414062 442.505859375 l 1
 178.649414062 359.048828125 l 1
 508.724609375 359.048828125 l 1
 508.724609375 279.045898438 l 1
 178.649414062 279.045898438 l 1
 178.649414062 116.997070312 l 1
 64.1484375 116.997070312 l 1
 64.1484375 279.045898438 l 1
 0.0009765625 279.045898438 l 1
 0.0009765625 359.048828125 l 1
 64.1484375 359.048828125 l 1
 64.1484375 442.505859375 l 1
 0.0009765625 442.505859375 l 1
 0.0009765625 522.508789062 l 1
 64.1484375 522.508789062 l 1
 64.1484375 681.27734375 l 1
578.267578125 681.27734375 m 1
 692.767578125 681.27734375 l 1
 692.767578125 600.833984375 l 1
 578.267578125 600.833984375 l 1
 578.267578125 681.27734375 l 1
578.267578125 198.3515625 m 1
 692.767578125 198.3515625 l 1
 692.767578125 116.997070312 l 1
 578.267578125 116.997070312 l 1
 578.267578125 198.3515625 l 1
178.637695312 116.484375 m 1
 578.26171875 116.484375 l 1
 578.26171875 0.001953125 l 1
 178.637695312 0.001953125 l 1
 178.637695312 116.484375 l 1
EndSplineSet
Validated: 1
EndChar
